<?xml version="1.0" encoding="utf-8" standalone="no"?>
<!DOCTYPE svg PUBLIC "-//W3C//DTD SVG 1.1//EN"
  "http://www.w3.org/Graphics/SVG/1.1/DTD/svg11.dtd">
<svg xmlns:xlink="http://www.w3.org/1999/xlink" width="288pt" height="288pt" viewBox="0 0 288 288" xmlns="http://www.w3.org/2000/svg" version="1.1">
 <metadata>
  <rdf:RDF xmlns:dc="http://purl.org/dc/elements/1.1/" xmlns:cc="http://creativecommons.org/ns#" xmlns:rdf="http://www.w3.org/1999/02/22-rdf-syntax-ns#">
   <cc:Work>
    <dc:type rdf:resource="http://purl.org/dc/dcmitype/StillImage"/>
    <dc:date>2023-01-04T01:10:02.528680</dc:date>
    <dc:format>image/svg+xml</dc:format>
    <dc:creator>
     <cc:Agent>
      <dc:title>Matplotlib v3.6.2, https://matplotlib.org/</dc:title>
     </cc:Agent>
    </dc:creator>
   </cc:Work>
  </rdf:RDF>
 </metadata>
 <defs>
  <style type="text/css">*{stroke-linejoin: round; stroke-linecap: butt}</style>
 </defs>
 <g id="figure_1">
  <g id="patch_1">
   <path d="M 0 288 
L 288 288 
L 288 0 
L 0 0 
z
" style="fill: #ffffff"/>
  </g>
  <g id="axes_1">
   <g id="patch_2">
    <path d="M 44.664947 262.687865 
L 275.04 262.687865 
L 275.04 26.428985 
L 44.664947 26.428985 
z
" style="fill: #ffffff"/>
   </g>
   <g id="patch_3">
    <path d="M 68.009619 127.399269 
L 98.111959 127.399269 
L 98.111959 104.371096 
L 68.009619 104.371096 
L 68.009619 127.399269 
z
" clip-path="url(#pecbafa9ffd)" style="fill: #539681; stroke: #292929; stroke-width: 1.25; stroke-linejoin: miter"/>
   </g>
   <g id="patch_4">
    <path d="M 98.726293 98.116513 
L 128.828633 98.116513 
L 128.828633 72.4604 
L 98.726293 72.4604 
L 98.726293 98.116513 
z
" clip-path="url(#pecbafa9ffd)" style="fill: #a04817; stroke: #292929; stroke-width: 1.25; stroke-linejoin: miter"/>
   </g>
   <g id="patch_5">
    <path d="M 129.442966 91.228499 
L 159.545307 91.228499 
L 159.545307 72.590855 
L 129.442966 72.590855 
L 129.442966 91.228499 
z
" clip-path="url(#pecbafa9ffd)" style="fill: #5e5a8a; stroke: #292929; stroke-width: 1.25; stroke-linejoin: miter"/>
   </g>
   <g id="patch_6">
    <path d="M 160.15964 201.161318 
L 190.26198 201.161318 
L 190.26198 189.391395 
L 160.15964 189.391395 
L 160.15964 201.161318 
z
" clip-path="url(#pecbafa9ffd)" style="fill: #ad256b; stroke: #292929; stroke-width: 1.25; stroke-linejoin: miter"/>
   </g>
   <g id="patch_7">
    <path d="M 190.876314 158.125726 
L 220.978654 158.125726 
L 220.978654 115.533679 
L 190.876314 115.533679 
L 190.876314 158.125726 
z
" clip-path="url(#pecbafa9ffd)" style="fill: #ab8118; stroke: #292929; stroke-width: 1.25; stroke-linejoin: miter"/>
   </g>
   <g id="patch_8">
    <path d="M 221.592988 243.031514 
L 251.695328 243.031514 
L 251.695328 235.146246 
L 221.592988 235.146246 
L 221.592988 243.031514 
z
" clip-path="url(#pecbafa9ffd)" style="fill: #477613; stroke: #292929; stroke-width: 1.25; stroke-linejoin: miter"/>
   </g>
   <g id="patch_9">
    <path d="M 159.852473 3293.789357 
L 159.852473 3293.789357 
L 159.852473 3293.789357 
L 159.852473 3293.789357 
z
" clip-path="url(#pecbafa9ffd)" style="fill: #539681; stroke: #292929; stroke-width: 0.625; stroke-linejoin: miter"/>
   </g>
   <g id="patch_10">
    <path d="M 159.852473 3293.789357 
L 159.852473 3293.789357 
L 159.852473 3293.789357 
L 159.852473 3293.789357 
z
" clip-path="url(#pecbafa9ffd)" style="fill: #a04817; stroke: #292929; stroke-width: 0.625; stroke-linejoin: miter"/>
   </g>
   <g id="patch_11">
    <path d="M 159.852473 3293.789357 
L 159.852473 3293.789357 
L 159.852473 3293.789357 
L 159.852473 3293.789357 
z
" clip-path="url(#pecbafa9ffd)" style="fill: #5e5a8a; stroke: #292929; stroke-width: 0.625; stroke-linejoin: miter"/>
   </g>
   <g id="patch_12">
    <path d="M 159.852473 3293.789357 
L 159.852473 3293.789357 
L 159.852473 3293.789357 
L 159.852473 3293.789357 
z
" clip-path="url(#pecbafa9ffd)" style="fill: #ad256b; stroke: #292929; stroke-width: 0.625; stroke-linejoin: miter"/>
   </g>
   <g id="patch_13">
    <path d="M 159.852473 3293.789357 
L 159.852473 3293.789357 
L 159.852473 3293.789357 
L 159.852473 3293.789357 
z
" clip-path="url(#pecbafa9ffd)" style="fill: #ab8118; stroke: #292929; stroke-width: 0.625; stroke-linejoin: miter"/>
   </g>
   <g id="patch_14">
    <path d="M 159.852473 3293.789357 
L 159.852473 3293.789357 
L 159.852473 3293.789357 
L 159.852473 3293.789357 
z
" clip-path="url(#pecbafa9ffd)" style="fill: #477613; stroke: #292929; stroke-width: 0.625; stroke-linejoin: miter"/>
   </g>
   <g id="matplotlib.axis_1">
    <g id="xtick_1">
     <g id="line2d_1">
      <defs>
       <path id="m3cc347a391" d="M 0 0 
L 0 -4 
" style="stroke: #000000; stroke-width: 0.5"/>
      </defs>
      <g>
       <use xlink:href="#m3cc347a391" x="159.852473" y="262.687865" style="stroke: #000000; stroke-width: 0.5"/>
      </g>
     </g>
     <g id="line2d_2">
      <defs>
       <path id="mb66e6c3ae6" d="M 0 0 
L 0 4 
" style="stroke: #000000; stroke-width: 0.5"/>
      </defs>
      <g>
       <use xlink:href="#mb66e6c3ae6" x="159.852473" y="26.428985" style="stroke: #000000; stroke-width: 0.5"/>
      </g>
     </g>
     <g id="text_1">
      <!-- Temperature -->
      <g transform="translate(131.108206 273.103597) scale(0.09996 -0.09996)">
       <defs>
        <path id="CMR17-54" d="M 3981 4326 
L 288 4326 
L 179 2918 
L 294 2918 
C 378 3976 467 4160 1453 4160 
C 1568 4160 1754 4160 1805 4154 
C 1926 4135 1926 4058 1926 3912 
L 1926 459 
C 1926 230 1907 160 1376 160 
L 1197 160 
L 1197 0 
C 1504 0 1824 0 2138 0 
C 2451 0 2771 0 3078 0 
L 3078 160 
L 2899 160 
C 2368 160 2349 230 2349 459 
L 2349 3912 
C 2349 4052 2349 4129 2464 4154 
C 2515 4160 2701 4160 2816 4160 
C 3795 4160 3891 3976 3974 2918 
L 4090 2918 
L 3981 4326 
z
" transform="scale(0.015625)"/>
        <path id="CMR17-65" d="M 2438 1472 
C 2464 1498 2464 1511 2464 1576 
C 2464 2238 2118 2816 1389 2816 
C 710 2816 173 2169 173 1383 
C 173 551 781 -64 1459 -64 
C 2176 -64 2458 607 2458 740 
C 2458 784 2419 784 2406 784 
C 2362 784 2355 771 2330 696 
C 2189 265 1837 51 1504 51 
C 1229 51 954 203 781 480 
C 582 803 582 1176 582 1472 
L 2438 1472 
z
M 589 1568 
C 634 2505 1126 2714 1382 2714 
C 1818 2714 2112 2297 2118 1568 
L 589 1568 
z
" transform="scale(0.015625)"/>
        <path id="CMR17-6d" d="M 4326 1933 
C 4326 2252 4269 2790 3507 2790 
C 3072 2790 2771 2496 2656 2151 
L 2650 2151 
C 2573 2676 2195 2790 1837 2790 
C 1331 2790 1069 2400 973 2144 
L 966 2144 
L 966 2790 
L 211 2720 
L 211 2554 
C 589 2554 646 2515 646 2208 
L 646 428 
C 646 184 621 153 211 153 
L 211 -13 
C 365 0 646 0 813 0 
C 979 0 1267 0 1421 -13 
L 1421 153 
C 1011 153 986 178 986 428 
L 986 1658 
C 986 2247 1344 2688 1792 2688 
C 2266 2688 2317 2266 2317 1958 
L 2317 428 
C 2317 184 2291 153 1882 153 
L 1882 -13 
C 2035 0 2317 0 2483 0 
C 2650 0 2938 0 3091 -13 
L 3091 153 
C 2682 153 2656 178 2656 428 
L 2656 1658 
C 2656 2247 3014 2688 3462 2688 
C 3936 2688 3987 2266 3987 1958 
L 3987 428 
C 3987 184 3962 153 3552 153 
L 3552 -13 
C 3706 0 3987 0 4154 0 
C 4320 0 4608 0 4762 -13 
L 4762 153 
C 4352 153 4326 178 4326 428 
L 4326 1933 
z
" transform="scale(0.015625)"/>
        <path id="CMR17-70" d="M 1408 -1063 
C 998 -1063 973 -1037 973 -789 
L 973 402 
C 1158 134 1427 -38 1766 -38 
C 2406 -38 3053 523 3053 1388 
C 3053 2191 2496 2802 1837 2802 
C 1453 2802 1139 2592 960 2338 
L 960 2802 
L 198 2732 
L 198 2567 
C 576 2567 634 2528 634 2223 
L 634 -789 
C 634 -1031 608 -1063 198 -1063 
L 198 -1228 
C 352 -1216 634 -1216 800 -1216 
C 966 -1216 1254 -1216 1408 -1228 
L 1408 -1063 
z
M 973 2012 
C 973 2102 973 2235 1222 2471 
C 1254 2497 1472 2688 1792 2688 
C 2259 2688 2643 2108 2643 1382 
C 2643 656 2234 64 1728 64 
C 1498 64 1248 172 1056 472 
C 973 612 973 650 973 752 
L 973 2012 
z
" transform="scale(0.015625)"/>
        <path id="CMR17-72" d="M 960 1497 
C 960 2112 1222 2688 1702 2688 
C 1747 2688 1792 2682 1837 2662 
C 1837 2662 1696 2617 1696 2452 
C 1696 2298 1818 2234 1914 2234 
C 1990 2234 2131 2279 2131 2458 
C 2131 2663 1926 2790 1709 2790 
C 1222 2790 1011 2317 947 2093 
L 941 2093 
L 941 2790 
L 198 2720 
L 198 2554 
C 576 2554 634 2515 634 2208 
L 634 428 
C 634 184 608 153 198 153 
L 198 -13 
C 352 0 646 0 813 0 
C 998 0 1325 0 1498 -13 
L 1498 153 
C 1037 153 960 153 960 440 
L 960 1497 
z
" transform="scale(0.015625)"/>
        <path id="CMR17-61" d="M 2304 1653 
C 2304 2072 2304 2294 2035 2543 
C 1798 2752 1523 2816 1306 2816 
C 800 2816 435 2407 435 1971 
C 435 1728 627 1728 666 1728 
C 749 1728 896 1778 896 1954 
C 896 2112 774 2181 666 2181 
C 640 2181 608 2174 589 2168 
C 723 2592 1069 2714 1293 2714 
C 1613 2714 1965 2429 1965 1885 
L 1965 1600 
C 1587 1600 1133 1549 774 1357 
C 371 1133 256 813 256 570 
C 256 77 832 -64 1171 -64 
C 1523 -64 1850 139 1990 511 
C 2003 233 2182 -18 2464 -18 
C 2598 -18 2938 70 2938 567 
L 2938 920 
L 2822 920 
L 2822 562 
C 2822 178 2650 128 2566 128 
C 2304 128 2304 458 2304 738 
L 2304 1653 
z
M 1965 870 
C 1965 317 1568 38 1216 38 
C 896 38 646 275 646 570 
C 646 761 730 1100 1101 1305 
C 1408 1478 1760 1504 1965 1504 
L 1965 870 
z
" transform="scale(0.015625)"/>
        <path id="CMR17-74" d="M 966 2560 
L 1862 2560 
L 1862 2725 
L 966 2725 
L 966 3904 
L 851 3904 
C 838 3245 614 2668 70 2668 
L 70 2560 
L 627 2560 
L 627 771 
C 627 650 627 -64 1370 -64 
C 1747 -64 1965 306 1965 777 
L 1965 1140 
L 1850 1140 
L 1850 783 
C 1850 344 1677 51 1408 51 
C 1222 51 966 178 966 758 
L 966 2560 
z
" transform="scale(0.015625)"/>
        <path id="CMR17-75" d="M 1882 2693 
L 1882 2528 
C 2259 2528 2317 2489 2317 2186 
L 2317 1032 
C 2317 500 2029 38 1555 38 
C 1030 38 986 348 986 678 
L 986 2763 
L 211 2693 
L 211 2528 
C 467 2528 640 2528 646 2274 
L 646 1058 
C 646 633 646 361 813 183 
C 896 101 1056 -64 1517 -64 
C 2061 -64 2272 377 2323 506 
L 2330 506 
L 2330 -63 
L 3091 -63 
L 3091 128 
C 2714 128 2656 166 2656 473 
L 2656 2763 
L 1882 2693 
z
" transform="scale(0.015625)"/>
       </defs>
       <use xlink:href="#CMR17-54" transform="scale(0.996264)"/>
       <use xlink:href="#CMR17-65" transform="translate(58.702625 0) scale(0.996264)"/>
       <use xlink:href="#CMR17-6d" transform="translate(99.188286 0) scale(0.996264)"/>
       <use xlink:href="#CMR17-70" transform="translate(176.107875 0) scale(0.996264)"/>
       <use xlink:href="#CMR17-65" transform="translate(229.605684 0) scale(0.996264)"/>
       <use xlink:href="#CMR17-72" transform="translate(270.091344 0) scale(0.996264)"/>
       <use xlink:href="#CMR17-61" transform="translate(305.372112 0) scale(0.996264)"/>
       <use xlink:href="#CMR17-74" transform="translate(351.062589 0) scale(0.996264)"/>
       <use xlink:href="#CMR17-75" transform="translate(386.343357 0) scale(0.996264)"/>
       <use xlink:href="#CMR17-72" transform="translate(437.238727 0) scale(0.996264)"/>
       <use xlink:href="#CMR17-65" transform="translate(472.519495 0) scale(0.996264)"/>
      </g>
     </g>
    </g>
   </g>
   <g id="matplotlib.axis_2">
    <g id="ytick_1">
     <g id="line2d_3">
      <defs>
       <path id="m6e2a20ce73" d="M 0 0 
L 5 0 
" style="stroke: #000000; stroke-width: 0.5"/>
      </defs>
      <g>
       <use xlink:href="#m6e2a20ce73" x="44.664947" y="240.447119" style="stroke: #000000; stroke-width: 0.5"/>
      </g>
     </g>
     <g id="line2d_4">
      <defs>
       <path id="mba428b24ea" d="M 0 0 
L -5 0 
" style="stroke: #000000; stroke-width: 0.5"/>
      </defs>
      <g>
       <use xlink:href="#mba428b24ea" x="275.04" y="240.447119" style="stroke: #000000; stroke-width: 0.5"/>
      </g>
     </g>
     <g id="text_2">
      <!-- $\mathdefault{300}$ -->
      <g transform="translate(25.812135 243.904984) scale(0.09996 -0.09996)">
       <defs>
        <path id="CMR17-33" d="M 1414 2157 
C 1984 2157 2234 1662 2234 1090 
C 2234 320 1824 25 1453 25 
C 1114 25 563 194 390 693 
C 422 680 454 680 486 680 
C 640 680 755 782 755 948 
C 755 1133 614 1216 486 1216 
C 378 1216 211 1165 211 926 
C 211 335 787 -128 1466 -128 
C 2176 -128 2720 430 2720 1085 
C 2720 1707 2208 2157 1600 2227 
C 2086 2328 2554 2756 2554 3329 
C 2554 3820 2048 4179 1472 4179 
C 890 4179 378 3829 378 3329 
C 378 3110 544 3072 627 3072 
C 762 3072 877 3155 877 3321 
C 877 3486 762 3569 627 3569 
C 602 3569 570 3569 544 3557 
C 730 3959 1235 4032 1459 4032 
C 1683 4032 2106 3925 2106 3320 
C 2106 3143 2080 2828 1862 2550 
C 1670 2304 1453 2304 1242 2284 
C 1210 2284 1062 2269 1037 2269 
C 992 2263 966 2257 966 2208 
C 966 2163 973 2157 1101 2157 
L 1414 2157 
z
" transform="scale(0.015625)"/>
        <path id="CMR17-30" d="M 2688 2025 
C 2688 2416 2682 3080 2413 3591 
C 2176 4039 1798 4198 1466 4198 
C 1158 4198 768 4058 525 3597 
C 269 3118 243 2524 243 2025 
C 243 1661 250 1106 448 619 
C 723 -39 1216 -128 1466 -128 
C 1760 -128 2208 -7 2470 600 
C 2662 1042 2688 1559 2688 2025 
z
M 1466 -26 
C 1056 -26 813 325 723 812 
C 653 1188 653 1738 653 2096 
C 653 2588 653 2997 736 3387 
C 858 3929 1216 4096 1466 4096 
C 1728 4096 2067 3923 2189 3400 
C 2272 3036 2278 2607 2278 2096 
C 2278 1680 2278 1169 2202 792 
C 2067 95 1690 -26 1466 -26 
z
" transform="scale(0.015625)"/>
       </defs>
       <use xlink:href="#CMR17-33" transform="scale(0.996264)"/>
       <use xlink:href="#CMR17-30" transform="translate(45.690477 0) scale(0.996264)"/>
       <use xlink:href="#CMR17-30" transform="translate(91.380954 0) scale(0.996264)"/>
      </g>
     </g>
    </g>
    <g id="ytick_2">
     <g id="line2d_5">
      <g>
       <use xlink:href="#m6e2a20ce73" x="44.664947" y="189.558081" style="stroke: #000000; stroke-width: 0.5"/>
      </g>
     </g>
     <g id="line2d_6">
      <g>
       <use xlink:href="#mba428b24ea" x="275.04" y="189.558081" style="stroke: #000000; stroke-width: 0.5"/>
      </g>
     </g>
     <g id="text_3">
      <!-- $\mathdefault{305}$ -->
      <g transform="translate(25.812135 193.015947) scale(0.09996 -0.09996)">
       <defs>
        <path id="CMR17-35" d="M 730 3692 
C 794 3666 1056 3584 1325 3584 
C 1920 3584 2246 3911 2432 4100 
C 2432 4157 2432 4192 2394 4192 
C 2387 4192 2374 4192 2323 4163 
C 2099 4058 1837 3973 1517 3973 
C 1325 3973 1037 3999 723 4139 
C 653 4171 640 4171 634 4171 
C 602 4171 595 4164 595 4037 
L 595 2203 
C 595 2089 595 2057 659 2057 
C 691 2057 704 2070 736 2114 
C 941 2401 1222 2522 1542 2522 
C 1766 2522 2246 2382 2246 1289 
C 2246 1085 2246 715 2054 421 
C 1894 159 1645 25 1370 25 
C 947 25 518 320 403 814 
C 429 807 480 795 506 795 
C 589 795 749 840 749 1038 
C 749 1210 627 1280 506 1280 
C 358 1280 262 1190 262 1011 
C 262 454 704 -128 1382 -128 
C 2042 -128 2669 440 2669 1264 
C 2669 2030 2170 2624 1549 2624 
C 1222 2624 947 2503 730 2274 
L 730 3692 
z
" transform="scale(0.015625)"/>
       </defs>
       <use xlink:href="#CMR17-33" transform="scale(0.996264)"/>
       <use xlink:href="#CMR17-30" transform="translate(45.690477 0) scale(0.996264)"/>
       <use xlink:href="#CMR17-35" transform="translate(91.380954 0) scale(0.996264)"/>
      </g>
     </g>
    </g>
    <g id="ytick_3">
     <g id="line2d_7">
      <g>
       <use xlink:href="#m6e2a20ce73" x="44.664947" y="138.669044" style="stroke: #000000; stroke-width: 0.5"/>
      </g>
     </g>
     <g id="line2d_8">
      <g>
       <use xlink:href="#mba428b24ea" x="275.04" y="138.669044" style="stroke: #000000; stroke-width: 0.5"/>
      </g>
     </g>
     <g id="text_4">
      <!-- $\mathdefault{310}$ -->
      <g transform="translate(25.812135 142.12691) scale(0.09996 -0.09996)">
       <defs>
        <path id="CMR17-31" d="M 1702 4058 
C 1702 4192 1696 4192 1606 4192 
C 1357 3916 979 3827 621 3827 
C 602 3827 570 3827 563 3808 
C 557 3795 557 3782 557 3648 
C 755 3648 1088 3686 1344 3839 
L 1344 461 
C 1344 236 1331 160 781 160 
L 589 160 
L 589 0 
C 896 0 1216 0 1523 0 
C 1830 0 2150 0 2458 0 
L 2458 160 
L 2266 160 
C 1715 160 1702 230 1702 458 
L 1702 4058 
z
" transform="scale(0.015625)"/>
       </defs>
       <use xlink:href="#CMR17-33" transform="scale(0.996264)"/>
       <use xlink:href="#CMR17-31" transform="translate(45.690477 0) scale(0.996264)"/>
       <use xlink:href="#CMR17-30" transform="translate(91.380954 0) scale(0.996264)"/>
      </g>
     </g>
    </g>
    <g id="ytick_4">
     <g id="line2d_9">
      <g>
       <use xlink:href="#m6e2a20ce73" x="44.664947" y="87.780007" style="stroke: #000000; stroke-width: 0.5"/>
      </g>
     </g>
     <g id="line2d_10">
      <g>
       <use xlink:href="#mba428b24ea" x="275.04" y="87.780007" style="stroke: #000000; stroke-width: 0.5"/>
      </g>
     </g>
     <g id="text_5">
      <!-- $\mathdefault{315}$ -->
      <g transform="translate(25.812135 91.237872) scale(0.09996 -0.09996)">
       <use xlink:href="#CMR17-33" transform="scale(0.996264)"/>
       <use xlink:href="#CMR17-31" transform="translate(45.690477 0) scale(0.996264)"/>
       <use xlink:href="#CMR17-35" transform="translate(91.380954 0) scale(0.996264)"/>
      </g>
     </g>
    </g>
    <g id="ytick_5">
     <g id="line2d_11">
      <g>
       <use xlink:href="#m6e2a20ce73" x="44.664947" y="36.890969" style="stroke: #000000; stroke-width: 0.5"/>
      </g>
     </g>
     <g id="line2d_12">
      <g>
       <use xlink:href="#mba428b24ea" x="275.04" y="36.890969" style="stroke: #000000; stroke-width: 0.5"/>
      </g>
     </g>
     <g id="text_6">
      <!-- $\mathdefault{320}$ -->
      <g transform="translate(25.812135 40.348835) scale(0.09996 -0.09996)">
       <defs>
        <path id="CMR17-32" d="M 2669 989 
L 2554 989 
C 2490 536 2438 459 2413 420 
C 2381 369 1920 369 1830 369 
L 602 369 
C 832 619 1280 1072 1824 1597 
C 2214 1967 2669 2402 2669 3035 
C 2669 3790 2067 4224 1395 4224 
C 691 4224 262 3604 262 3030 
C 262 2780 448 2748 525 2748 
C 589 2748 781 2787 781 3010 
C 781 3207 614 3264 525 3264 
C 486 3264 448 3258 422 3245 
C 544 3790 915 4058 1306 4058 
C 1862 4058 2227 3617 2227 3035 
C 2227 2479 1901 2000 1536 1584 
L 262 146 
L 262 0 
L 2515 0 
L 2669 989 
z
" transform="scale(0.015625)"/>
       </defs>
       <use xlink:href="#CMR17-33" transform="scale(0.996264)"/>
       <use xlink:href="#CMR17-32" transform="translate(45.690477 0) scale(0.996264)"/>
       <use xlink:href="#CMR17-30" transform="translate(91.380954 0) scale(0.996264)"/>
      </g>
     </g>
    </g>
    <g id="ytick_6">
     <g id="line2d_13">
      <defs>
       <path id="m03a5bfaf71" d="M 0 0 
L 3 0 
" style="stroke: #000000; stroke-width: 0.5"/>
      </defs>
      <g>
       <use xlink:href="#m03a5bfaf71" x="44.664947" y="260.802733" style="stroke: #000000; stroke-width: 0.5"/>
      </g>
     </g>
     <g id="line2d_14">
      <defs>
       <path id="m9fb785548e" d="M 0 0 
L -3 0 
" style="stroke: #000000; stroke-width: 0.5"/>
      </defs>
      <g>
       <use xlink:href="#m9fb785548e" x="275.04" y="260.802733" style="stroke: #000000; stroke-width: 0.5"/>
      </g>
     </g>
    </g>
    <g id="ytick_7">
     <g id="line2d_15">
      <g>
       <use xlink:href="#m03a5bfaf71" x="44.664947" y="250.624926" style="stroke: #000000; stroke-width: 0.5"/>
      </g>
     </g>
     <g id="line2d_16">
      <g>
       <use xlink:href="#m9fb785548e" x="275.04" y="250.624926" style="stroke: #000000; stroke-width: 0.5"/>
      </g>
     </g>
    </g>
    <g id="ytick_8">
     <g id="line2d_17">
      <g>
       <use xlink:href="#m03a5bfaf71" x="44.664947" y="230.269311" style="stroke: #000000; stroke-width: 0.5"/>
      </g>
     </g>
     <g id="line2d_18">
      <g>
       <use xlink:href="#m9fb785548e" x="275.04" y="230.269311" style="stroke: #000000; stroke-width: 0.5"/>
      </g>
     </g>
    </g>
    <g id="ytick_9">
     <g id="line2d_19">
      <g>
       <use xlink:href="#m03a5bfaf71" x="44.664947" y="220.091504" style="stroke: #000000; stroke-width: 0.5"/>
      </g>
     </g>
     <g id="line2d_20">
      <g>
       <use xlink:href="#m9fb785548e" x="275.04" y="220.091504" style="stroke: #000000; stroke-width: 0.5"/>
      </g>
     </g>
    </g>
    <g id="ytick_10">
     <g id="line2d_21">
      <g>
       <use xlink:href="#m03a5bfaf71" x="44.664947" y="209.913696" style="stroke: #000000; stroke-width: 0.5"/>
      </g>
     </g>
     <g id="line2d_22">
      <g>
       <use xlink:href="#m9fb785548e" x="275.04" y="209.913696" style="stroke: #000000; stroke-width: 0.5"/>
      </g>
     </g>
    </g>
    <g id="ytick_11">
     <g id="line2d_23">
      <g>
       <use xlink:href="#m03a5bfaf71" x="44.664947" y="199.735889" style="stroke: #000000; stroke-width: 0.5"/>
      </g>
     </g>
     <g id="line2d_24">
      <g>
       <use xlink:href="#m9fb785548e" x="275.04" y="199.735889" style="stroke: #000000; stroke-width: 0.5"/>
      </g>
     </g>
    </g>
    <g id="ytick_12">
     <g id="line2d_25">
      <g>
       <use xlink:href="#m03a5bfaf71" x="44.664947" y="179.380274" style="stroke: #000000; stroke-width: 0.5"/>
      </g>
     </g>
     <g id="line2d_26">
      <g>
       <use xlink:href="#m9fb785548e" x="275.04" y="179.380274" style="stroke: #000000; stroke-width: 0.5"/>
      </g>
     </g>
    </g>
    <g id="ytick_13">
     <g id="line2d_27">
      <g>
       <use xlink:href="#m03a5bfaf71" x="44.664947" y="169.202466" style="stroke: #000000; stroke-width: 0.5"/>
      </g>
     </g>
     <g id="line2d_28">
      <g>
       <use xlink:href="#m9fb785548e" x="275.04" y="169.202466" style="stroke: #000000; stroke-width: 0.5"/>
      </g>
     </g>
    </g>
    <g id="ytick_14">
     <g id="line2d_29">
      <g>
       <use xlink:href="#m03a5bfaf71" x="44.664947" y="159.024659" style="stroke: #000000; stroke-width: 0.5"/>
      </g>
     </g>
     <g id="line2d_30">
      <g>
       <use xlink:href="#m9fb785548e" x="275.04" y="159.024659" style="stroke: #000000; stroke-width: 0.5"/>
      </g>
     </g>
    </g>
    <g id="ytick_15">
     <g id="line2d_31">
      <g>
       <use xlink:href="#m03a5bfaf71" x="44.664947" y="148.846851" style="stroke: #000000; stroke-width: 0.5"/>
      </g>
     </g>
     <g id="line2d_32">
      <g>
       <use xlink:href="#m9fb785548e" x="275.04" y="148.846851" style="stroke: #000000; stroke-width: 0.5"/>
      </g>
     </g>
    </g>
    <g id="ytick_16">
     <g id="line2d_33">
      <g>
       <use xlink:href="#m03a5bfaf71" x="44.664947" y="128.491236" style="stroke: #000000; stroke-width: 0.5"/>
      </g>
     </g>
     <g id="line2d_34">
      <g>
       <use xlink:href="#m9fb785548e" x="275.04" y="128.491236" style="stroke: #000000; stroke-width: 0.5"/>
      </g>
     </g>
    </g>
    <g id="ytick_17">
     <g id="line2d_35">
      <g>
       <use xlink:href="#m03a5bfaf71" x="44.664947" y="118.313429" style="stroke: #000000; stroke-width: 0.5"/>
      </g>
     </g>
     <g id="line2d_36">
      <g>
       <use xlink:href="#m9fb785548e" x="275.04" y="118.313429" style="stroke: #000000; stroke-width: 0.5"/>
      </g>
     </g>
    </g>
    <g id="ytick_18">
     <g id="line2d_37">
      <g>
       <use xlink:href="#m03a5bfaf71" x="44.664947" y="108.135622" style="stroke: #000000; stroke-width: 0.5"/>
      </g>
     </g>
     <g id="line2d_38">
      <g>
       <use xlink:href="#m9fb785548e" x="275.04" y="108.135622" style="stroke: #000000; stroke-width: 0.5"/>
      </g>
     </g>
    </g>
    <g id="ytick_19">
     <g id="line2d_39">
      <g>
       <use xlink:href="#m03a5bfaf71" x="44.664947" y="97.957814" style="stroke: #000000; stroke-width: 0.5"/>
      </g>
     </g>
     <g id="line2d_40">
      <g>
       <use xlink:href="#m9fb785548e" x="275.04" y="97.957814" style="stroke: #000000; stroke-width: 0.5"/>
      </g>
     </g>
    </g>
    <g id="ytick_20">
     <g id="line2d_41">
      <g>
       <use xlink:href="#m03a5bfaf71" x="44.664947" y="77.602199" style="stroke: #000000; stroke-width: 0.5"/>
      </g>
     </g>
     <g id="line2d_42">
      <g>
       <use xlink:href="#m9fb785548e" x="275.04" y="77.602199" style="stroke: #000000; stroke-width: 0.5"/>
      </g>
     </g>
    </g>
    <g id="ytick_21">
     <g id="line2d_43">
      <g>
       <use xlink:href="#m03a5bfaf71" x="44.664947" y="67.424392" style="stroke: #000000; stroke-width: 0.5"/>
      </g>
     </g>
     <g id="line2d_44">
      <g>
       <use xlink:href="#m9fb785548e" x="275.04" y="67.424392" style="stroke: #000000; stroke-width: 0.5"/>
      </g>
     </g>
    </g>
    <g id="ytick_22">
     <g id="line2d_45">
      <g>
       <use xlink:href="#m03a5bfaf71" x="44.664947" y="57.246584" style="stroke: #000000; stroke-width: 0.5"/>
      </g>
     </g>
     <g id="line2d_46">
      <g>
       <use xlink:href="#m9fb785548e" x="275.04" y="57.246584" style="stroke: #000000; stroke-width: 0.5"/>
      </g>
     </g>
    </g>
    <g id="ytick_23">
     <g id="line2d_47">
      <g>
       <use xlink:href="#m03a5bfaf71" x="44.664947" y="47.068777" style="stroke: #000000; stroke-width: 0.5"/>
      </g>
     </g>
     <g id="line2d_48">
      <g>
       <use xlink:href="#m9fb785548e" x="275.04" y="47.068777" style="stroke: #000000; stroke-width: 0.5"/>
      </g>
     </g>
    </g>
    <g id="ytick_24">
     <g id="line2d_49">
      <g>
       <use xlink:href="#m03a5bfaf71" x="44.664947" y="26.713162" style="stroke: #000000; stroke-width: 0.5"/>
      </g>
     </g>
     <g id="line2d_50">
      <g>
       <use xlink:href="#m9fb785548e" x="275.04" y="26.713162" style="stroke: #000000; stroke-width: 0.5"/>
      </g>
     </g>
    </g>
    <g id="text_7">
     <!-- value -->
     <g transform="translate(19.875732 156.074946) rotate(-90) scale(0.09996 -0.09996)">
      <defs>
       <path id="CMR17-76" d="M 2502 2163 
C 2560 2304 2662 2560 3034 2560 
L 3034 2726 
C 2912 2726 2752 2726 2630 2726 
C 2496 2726 2285 2726 2157 2732 
L 2157 2566 
C 2317 2553 2406 2477 2406 2311 
C 2406 2253 2406 2240 2368 2151 
L 1664 377 
L 902 2286 
C 864 2369 864 2381 864 2407 
C 864 2560 1075 2560 1171 2560 
L 1171 2732 
C 1018 2726 736 2726 576 2726 
C 403 2726 205 2726 64 2732 
L 64 2560 
C 307 2560 442 2560 518 2362 
L 1446 44 
C 1485 -51 1491 -64 1549 -64 
C 1606 -64 1613 -51 1651 44 
L 2502 2163 
z
" transform="scale(0.015625)"/>
       <path id="CMR17-6c" d="M 979 4396 
L 218 4326 
L 218 4160 
C 595 4160 653 4122 653 3817 
L 653 426 
C 653 184 627 153 218 153 
L 218 -13 
C 371 0 653 0 813 0 
C 979 0 1261 0 1414 -13 
L 1414 153 
C 1005 153 979 178 979 426 
L 979 4396 
z
" transform="scale(0.015625)"/>
      </defs>
      <use xlink:href="#CMR17-76" transform="scale(0.996264)"/>
      <use xlink:href="#CMR17-61" transform="translate(43.088099 0) scale(0.996264)"/>
      <use xlink:href="#CMR17-6c" transform="translate(88.778576 0) scale(0.996264)"/>
      <use xlink:href="#CMR17-75" transform="translate(113.649635 0) scale(0.996264)"/>
      <use xlink:href="#CMR17-65" transform="translate(164.545005 0) scale(0.996264)"/>
     </g>
    </g>
   </g>
   <g id="line2d_51">
    <path d="M 83.060789 127.399269 
L 83.060789 156.647238 
" clip-path="url(#pecbafa9ffd)" style="fill: none; stroke: #292929; stroke-width: 1.25; stroke-linecap: square"/>
   </g>
   <g id="line2d_52">
    <path d="M 83.060789 104.371096 
L 83.060789 83.540362 
" clip-path="url(#pecbafa9ffd)" style="fill: none; stroke: #292929; stroke-width: 1.25; stroke-linecap: square"/>
   </g>
   <g id="line2d_53">
    <path d="M 75.535204 156.647238 
L 90.586374 156.647238 
" clip-path="url(#pecbafa9ffd)" style="fill: none; stroke: #292929; stroke-width: 1.25; stroke-linecap: square"/>
   </g>
   <g id="line2d_54">
    <path d="M 75.535204 83.540362 
L 90.586374 83.540362 
" clip-path="url(#pecbafa9ffd)" style="fill: none; stroke: #292929; stroke-width: 1.25; stroke-linecap: square"/>
   </g>
   <g id="line2d_55">
    <path d="M 113.777463 98.116513 
L 113.777463 123.929171 
" clip-path="url(#pecbafa9ffd)" style="fill: none; stroke: #292929; stroke-width: 1.25; stroke-linecap: square"/>
   </g>
   <g id="line2d_56">
    <path d="M 113.777463 72.4604 
L 113.777463 37.168025 
" clip-path="url(#pecbafa9ffd)" style="fill: none; stroke: #292929; stroke-width: 1.25; stroke-linecap: square"/>
   </g>
   <g id="line2d_57">
    <path d="M 106.251878 123.929171 
L 121.303048 123.929171 
" clip-path="url(#pecbafa9ffd)" style="fill: none; stroke: #292929; stroke-width: 1.25; stroke-linecap: square"/>
   </g>
   <g id="line2d_58">
    <path d="M 106.251878 37.168025 
L 121.303048 37.168025 
" clip-path="url(#pecbafa9ffd)" style="fill: none; stroke: #292929; stroke-width: 1.25; stroke-linecap: square"/>
   </g>
   <g id="line2d_59">
    <path d="M 144.494137 91.228499 
L 144.494137 116.113479 
" clip-path="url(#pecbafa9ffd)" style="fill: none; stroke: #292929; stroke-width: 1.25; stroke-linecap: square"/>
   </g>
   <g id="line2d_60">
    <path d="M 144.494137 72.590855 
L 144.494137 49.152474 
" clip-path="url(#pecbafa9ffd)" style="fill: none; stroke: #292929; stroke-width: 1.25; stroke-linecap: square"/>
   </g>
   <g id="line2d_61">
    <path d="M 136.968551 116.113479 
L 152.019722 116.113479 
" clip-path="url(#pecbafa9ffd)" style="fill: none; stroke: #292929; stroke-width: 1.25; stroke-linecap: square"/>
   </g>
   <g id="line2d_62">
    <path d="M 136.968551 49.152474 
L 152.019722 49.152474 
" clip-path="url(#pecbafa9ffd)" style="fill: none; stroke: #292929; stroke-width: 1.25; stroke-linecap: square"/>
   </g>
   <g id="line2d_63">
    <path d="M 175.21081 201.161318 
L 175.21081 217.821847 
" clip-path="url(#pecbafa9ffd)" style="fill: none; stroke: #292929; stroke-width: 1.25; stroke-linecap: square"/>
   </g>
   <g id="line2d_64">
    <path d="M 175.21081 189.391395 
L 175.21081 179.381163 
" clip-path="url(#pecbafa9ffd)" style="fill: none; stroke: #292929; stroke-width: 1.25; stroke-linecap: square"/>
   </g>
   <g id="line2d_65">
    <path d="M 167.685225 217.821847 
L 182.736395 217.821847 
" clip-path="url(#pecbafa9ffd)" style="fill: none; stroke: #292929; stroke-width: 1.25; stroke-linecap: square"/>
   </g>
   <g id="line2d_66">
    <path d="M 167.685225 179.381163 
L 182.736395 179.381163 
" clip-path="url(#pecbafa9ffd)" style="fill: none; stroke: #292929; stroke-width: 1.25; stroke-linecap: square"/>
   </g>
   <g id="line2d_67">
    <path d="M 205.927484 158.125726 
L 205.927484 179.015889 
" clip-path="url(#pecbafa9ffd)" style="fill: none; stroke: #292929; stroke-width: 1.25; stroke-linecap: square"/>
   </g>
   <g id="line2d_68">
    <path d="M 205.927484 115.533679 
L 205.927484 78.652655 
" clip-path="url(#pecbafa9ffd)" style="fill: none; stroke: #292929; stroke-width: 1.25; stroke-linecap: square"/>
   </g>
   <g id="line2d_69">
    <path d="M 198.401899 179.015889 
L 213.453069 179.015889 
" clip-path="url(#pecbafa9ffd)" style="fill: none; stroke: #292929; stroke-width: 1.25; stroke-linecap: square"/>
   </g>
   <g id="line2d_70">
    <path d="M 198.401899 78.652655 
L 213.453069 78.652655 
" clip-path="url(#pecbafa9ffd)" style="fill: none; stroke: #292929; stroke-width: 1.25; stroke-linecap: square"/>
   </g>
   <g id="line2d_71">
    <path d="M 236.644158 243.031514 
L 236.644158 251.948825 
" clip-path="url(#pecbafa9ffd)" style="fill: none; stroke: #292929; stroke-width: 1.25; stroke-linecap: square"/>
   </g>
   <g id="line2d_72">
    <path d="M 236.644158 235.146246 
L 236.644158 223.770586 
" clip-path="url(#pecbafa9ffd)" style="fill: none; stroke: #292929; stroke-width: 1.25; stroke-linecap: square"/>
   </g>
   <g id="line2d_73">
    <path d="M 229.118573 251.948825 
L 244.169743 251.948825 
" clip-path="url(#pecbafa9ffd)" style="fill: none; stroke: #292929; stroke-width: 1.25; stroke-linecap: square"/>
   </g>
   <g id="line2d_74">
    <path d="M 229.118573 223.770586 
L 244.169743 223.770586 
" clip-path="url(#pecbafa9ffd)" style="fill: none; stroke: #292929; stroke-width: 1.25; stroke-linecap: square"/>
   </g>
   <g id="line2d_75">
    <path d="M 68.009619 117.936947 
L 98.111959 117.936947 
" clip-path="url(#pecbafa9ffd)" style="fill: none; stroke: #292929; stroke-width: 1.25; stroke-linecap: square"/>
   </g>
   <g id="line2d_76">
    <path d="M 98.726293 81.139993 
L 128.828633 81.139993 
" clip-path="url(#pecbafa9ffd)" style="fill: none; stroke: #292929; stroke-width: 1.25; stroke-linecap: square"/>
   </g>
   <g id="line2d_77">
    <path d="M 129.442966 83.522968 
L 159.545307 83.522968 
" clip-path="url(#pecbafa9ffd)" style="fill: none; stroke: #292929; stroke-width: 1.25; stroke-linecap: square"/>
   </g>
   <g id="line2d_78">
    <path d="M 160.15964 195.876449 
L 190.26198 195.876449 
" clip-path="url(#pecbafa9ffd)" style="fill: none; stroke: #292929; stroke-width: 1.25; stroke-linecap: square"/>
   </g>
   <g id="line2d_79">
    <path d="M 190.876314 127.51233 
L 220.978654 127.51233 
" clip-path="url(#pecbafa9ffd)" style="fill: none; stroke: #292929; stroke-width: 1.25; stroke-linecap: square"/>
   </g>
   <g id="line2d_80">
    <path d="M 221.592988 239.993367 
L 251.695328 239.993367 
" clip-path="url(#pecbafa9ffd)" style="fill: none; stroke: #292929; stroke-width: 1.25; stroke-linecap: square"/>
   </g>
   <g id="patch_15">
    <path d="M 44.664947 262.687865 
L 44.664947 26.428985 
" style="fill: none; stroke: #000000; stroke-width: 0.5; stroke-linejoin: miter; stroke-linecap: square"/>
   </g>
   <g id="patch_16">
    <path d="M 275.04 262.687865 
L 275.04 26.428985 
" style="fill: none; stroke: #000000; stroke-width: 0.5; stroke-linejoin: miter; stroke-linecap: square"/>
   </g>
   <g id="patch_17">
    <path d="M 44.664947 262.687865 
L 275.04 262.687865 
" style="fill: none; stroke: #000000; stroke-width: 0.5; stroke-linejoin: miter; stroke-linecap: square"/>
   </g>
   <g id="patch_18">
    <path d="M 44.664947 26.428985 
L 275.04 26.428985 
" style="fill: none; stroke: #000000; stroke-width: 0.5; stroke-linejoin: miter; stroke-linecap: square"/>
   </g>
   <g id="text_8">
    <!-- Temperature [K] -->
    <g transform="translate(122.579634 20.428985) scale(0.09996 -0.09996)">
     <defs>
      <path id="CMR17-5b" d="M 1504 -1600 
L 1504 -1377 
L 902 -1377 
L 902 4544 
L 1504 4544 
L 1504 4767 
L 678 4767 
L 678 -1600 
L 1504 -1600 
z
" transform="scale(0.015625)"/>
      <path id="CMR17-4b" d="M 2362 2675 
L 3469 3782 
C 3699 4006 3942 4186 4301 4186 
L 4301 4352 
C 4173 4352 4013 4352 3885 4352 
C 3712 4352 3411 4352 3245 4358 
L 3245 4192 
C 3411 4180 3437 4065 3437 4019 
C 3437 3975 3411 3905 3386 3867 
L 1261 1738 
L 1261 3900 
C 1261 4186 1331 4186 1773 4186 
L 1773 4352 
C 1587 4352 1248 4352 1050 4352 
C 851 4352 512 4352 326 4352 
L 326 4186 
C 768 4186 838 4186 838 3899 
L 838 446 
C 838 160 768 160 326 160 
L 326 0 
C 512 0 851 0 1050 0 
C 1248 0 1587 0 1773 0 
L 1773 160 
C 1331 160 1261 160 1261 447 
L 1261 1579 
L 2080 2390 
L 3290 537 
C 3328 473 3373 390 3373 326 
C 3373 160 3194 160 3110 160 
L 3110 0 
C 3315 0 3610 0 3821 0 
C 3974 0 4237 0 4384 -6 
L 4384 160 
C 4077 160 3981 198 3789 493 
L 2362 2675 
z
" transform="scale(0.015625)"/>
      <path id="CMR17-5d" d="M 915 4767 
L 90 4767 
L 90 4544 
L 691 4544 
L 691 -1377 
L 90 -1377 
L 90 -1600 
L 915 -1600 
L 915 4767 
z
" transform="scale(0.015625)"/>
     </defs>
     <use xlink:href="#CMR17-54" transform="scale(0.996264)"/>
     <use xlink:href="#CMR17-65" transform="translate(58.702625 0) scale(0.996264)"/>
     <use xlink:href="#CMR17-6d" transform="translate(99.188286 0) scale(0.996264)"/>
     <use xlink:href="#CMR17-70" transform="translate(176.107875 0) scale(0.996264)"/>
     <use xlink:href="#CMR17-65" transform="translate(229.605684 0) scale(0.996264)"/>
     <use xlink:href="#CMR17-72" transform="translate(270.091344 0) scale(0.996264)"/>
     <use xlink:href="#CMR17-61" transform="translate(305.372112 0) scale(0.996264)"/>
     <use xlink:href="#CMR17-74" transform="translate(351.062589 0) scale(0.996264)"/>
     <use xlink:href="#CMR17-75" transform="translate(386.343357 0) scale(0.996264)"/>
     <use xlink:href="#CMR17-72" transform="translate(437.238727 0) scale(0.996264)"/>
     <use xlink:href="#CMR17-65" transform="translate(472.519495 0) scale(0.996264)"/>
     <use xlink:href="#CMR17-5b" transform="translate(543.081122 0) scale(0.996264)"/>
     <use xlink:href="#CMR17-4b" transform="translate(567.95218 0) scale(0.996264)"/>
     <use xlink:href="#CMR17-5d" transform="translate(639.626957 0) scale(0.996264)"/>
    </g>
   </g>
   <g id="legend_1">
    <g id="text_9">
     <!-- species -->
     <g transform="translate(75.12851 168.165444) scale(0.09996 -0.09996)">
      <defs>
       <path id="CMR17-73" d="M 1978 2697 
C 1978 2813 1971 2819 1933 2819 
C 1907 2819 1901 2813 1824 2717 
C 1805 2691 1747 2626 1728 2601 
C 1523 2819 1235 2819 1126 2819 
C 416 2819 160 2447 160 2076 
C 160 1498 813 1365 998 1325 
C 1402 1243 1542 1217 1677 1101 
C 1760 1025 1901 884 1901 654 
C 1901 384 1747 38 1158 38 
C 602 38 403 460 288 1021 
C 269 1110 269 1117 218 1117 
C 166 1117 160 1110 160 983 
L 160 63 
C 160 -51 166 -58 205 -58 
C 237 -58 243 -51 275 0 
C 314 57 410 211 448 276 
C 576 103 800 -64 1158 -64 
C 1792 -64 2131 283 2131 784 
C 2131 1112 1958 1285 1875 1362 
C 1683 1561 1459 1606 1190 1657 
C 838 1735 390 1825 390 2217 
C 390 2383 480 2737 1126 2737 
C 1811 2737 1850 2094 1862 1888 
C 1869 1856 1901 1849 1920 1849 
C 1978 1849 1978 1869 1978 1978 
L 1978 2697 
z
" transform="scale(0.015625)"/>
       <path id="CMR17-63" d="M 2234 2240 
C 2112 2240 1933 2240 1933 2017 
C 1933 1838 2080 1787 2163 1787 
C 2208 1787 2394 1807 2394 2024 
C 2394 2467 1958 2803 1466 2803 
C 787 2803 211 2178 211 1363 
C 211 516 813 -64 1466 -64 
C 2259 -64 2458 677 2458 748 
C 2458 774 2451 793 2406 793 
C 2362 793 2355 787 2330 703 
C 2163 180 1798 51 1523 51 
C 1114 51 621 427 621 1369 
C 621 2338 1094 2688 1472 2688 
C 1722 2688 2093 2573 2234 2240 
z
" transform="scale(0.015625)"/>
       <path id="CMR17-69" d="M 992 3909 
C 992 4049 877 4170 730 4170 
C 589 4170 467 4056 467 3909 
C 467 3769 582 3648 730 3648 
C 870 3648 992 3763 992 3909 
z
M 243 2706 
L 243 2541 
C 602 2541 653 2502 653 2197 
L 653 427 
C 653 184 627 153 218 153 
L 218 -13 
C 371 0 646 0 806 0 
C 960 0 1222 0 1370 -13 
L 1370 153 
C 992 153 979 191 979 420 
L 979 2776 
L 243 2706 
z
" transform="scale(0.015625)"/>
      </defs>
      <use xlink:href="#CMR17-73" transform="scale(0.996264)"/>
      <use xlink:href="#CMR17-70" transform="translate(35.801338 0) scale(0.996264)"/>
      <use xlink:href="#CMR17-65" transform="translate(89.299146 0) scale(0.996264)"/>
      <use xlink:href="#CMR17-63" transform="translate(129.784807 0) scale(0.996264)"/>
      <use xlink:href="#CMR17-69" transform="translate(170.270467 0) scale(0.996264)"/>
      <use xlink:href="#CMR17-65" transform="translate(195.141526 0) scale(0.996264)"/>
      <use xlink:href="#CMR17-73" transform="translate(235.627186 0) scale(0.996264)"/>
     </g>
    </g>
    <g id="patch_19">
     <path d="M 53.661347 182.097047 
L 73.653347 182.097047 
L 73.653347 175.099847 
L 53.661347 175.099847 
z
" style="fill: #539681; stroke: #292929; stroke-width: 0.625; stroke-linejoin: miter"/>
    </g>
    <g id="text_10">
     <!-- Woodland -->
     <g transform="translate(81.650147 182.097047) scale(0.09996 -0.09996)">
      <defs>
       <path id="CMR17-57" d="M 5523 3764 
C 5581 3936 5677 4160 6048 4160 
L 6048 4326 
C 5939 4326 5715 4326 5600 4326 
C 5440 4326 5158 4326 5005 4332 
L 5005 4160 
C 5293 4160 5414 4000 5414 3847 
C 5414 3802 5408 3777 5382 3707 
L 4390 555 
L 3347 3873 
C 3328 3937 3322 3963 3322 3988 
C 3322 4160 3603 4160 3725 4160 
L 3725 4326 
C 3539 4326 3219 4326 3021 4326 
C 2861 4326 2573 4326 2426 4332 
L 2426 4160 
C 2720 4160 2797 4141 2861 4027 
C 2886 3969 2989 3638 2989 3619 
C 2989 3593 2976 3555 2970 3536 
L 2029 561 
L 986 3867 
C 954 3957 954 3969 954 3982 
C 954 4160 1235 4160 1363 4160 
L 1363 4326 
C 1178 4326 858 4326 659 4326 
C 493 4326 211 4326 58 4332 
L 58 4160 
C 442 4160 467 4122 531 3918 
L 1779 -20 
C 1811 -115 1811 -128 1869 -128 
C 1920 -128 1939 -115 1965 -26 
L 3053 3433 
L 4141 -26 
C 4166 -115 4186 -128 4237 -128 
C 4294 -128 4294 -115 4326 -20 
L 5523 3764 
z
" transform="scale(0.015625)"/>
       <path id="CMR17-6f" d="M 2758 1356 
C 2758 2176 2163 2816 1466 2816 
C 768 2816 173 2176 173 1356 
C 173 551 768 -64 1466 -64 
C 2163 -64 2758 551 2758 1356 
z
M 1466 51 
C 1165 51 909 230 762 480 
C 602 767 582 1126 582 1408 
C 582 1677 595 2010 762 2298 
C 890 2509 1139 2714 1466 2714 
C 1754 2714 1997 2554 2150 2330 
C 2349 2029 2349 1607 2349 1408 
C 2349 1158 2336 775 2163 467 
C 1984 173 1709 51 1466 51 
z
" transform="scale(0.015625)"/>
       <path id="CMR17-64" d="M 1869 4326 
L 1869 4160 
C 2246 4160 2304 4122 2304 3820 
L 2304 2345 
C 2278 2377 2016 2790 1498 2790 
C 845 2790 211 2208 211 1364 
C 211 525 806 -64 1434 -64 
C 1978 -64 2259 337 2291 380 
L 2291 -63 
L 3066 -63 
L 3066 128 
C 2688 128 2630 166 2630 473 
L 2630 4396 
L 1869 4326 
z
M 2291 755 
C 2291 563 2176 390 2029 262 
C 1811 70 1594 38 1472 38 
C 1286 38 621 134 621 1356 
C 621 2612 1363 2688 1530 2688 
C 1824 2688 2061 2522 2208 2291 
C 2291 2157 2291 2138 2291 2023 
L 2291 755 
z
" transform="scale(0.015625)"/>
       <path id="CMR17-6e" d="M 2656 1933 
C 2656 2259 2592 2790 1837 2790 
C 1331 2790 1069 2400 973 2144 
L 966 2144 
L 966 2790 
L 211 2720 
L 211 2554 
C 589 2554 646 2515 646 2208 
L 646 428 
C 646 184 621 153 211 153 
L 211 -13 
C 365 0 646 0 813 0 
C 979 0 1267 0 1421 -13 
L 1421 153 
C 1011 153 986 178 986 428 
L 986 1658 
C 986 2247 1344 2688 1792 2688 
C 2266 2688 2317 2266 2317 1958 
L 2317 428 
C 2317 184 2291 153 1882 153 
L 1882 -13 
C 2035 0 2317 0 2483 0 
C 2650 0 2938 0 3091 -13 
L 3091 153 
C 2682 153 2656 178 2656 428 
L 2656 1933 
z
" transform="scale(0.015625)"/>
      </defs>
      <use xlink:href="#CMR17-57" transform="scale(0.996264)"/>
      <use xlink:href="#CMR17-6f" transform="translate(87.289395 0) scale(0.996264)"/>
      <use xlink:href="#CMR17-6f" transform="translate(135.58231 0) scale(0.996264)"/>
      <use xlink:href="#CMR17-64" transform="translate(183.875226 0) scale(0.996264)"/>
      <use xlink:href="#CMR17-6c" transform="translate(234.770596 0) scale(0.996264)"/>
      <use xlink:href="#CMR17-61" transform="translate(259.641654 0) scale(0.996264)"/>
      <use xlink:href="#CMR17-6e" transform="translate(305.332132 0) scale(0.996264)"/>
      <use xlink:href="#CMR17-64" transform="translate(356.227501 0) scale(0.996264)"/>
     </g>
    </g>
    <g id="patch_20">
     <path d="M 53.661347 196.02865 
L 73.653347 196.02865 
L 73.653347 189.03145 
L 53.661347 189.03145 
z
" style="fill: #a04817; stroke: #292929; stroke-width: 0.625; stroke-linejoin: miter"/>
    </g>
    <g id="text_11">
     <!-- Shrubs -->
     <g transform="translate(81.650147 196.02865) scale(0.09996 -0.09996)">
      <defs>
       <path id="CMR17-53" d="M 2803 4290 
C 2803 4404 2797 4411 2758 4411 
C 2720 4411 2707 4385 2682 4328 
L 2490 3907 
C 2246 4257 1875 4416 1472 4416 
C 819 4416 294 3901 294 3253 
C 294 3056 339 2776 557 2510 
C 794 2218 1018 2167 1530 2033 
C 1722 1982 2042 1899 2106 1874 
C 2470 1722 2662 1341 2662 985 
C 2662 527 2336 38 1779 38 
C 1094 38 454 419 410 1311 
C 403 1413 397 1419 352 1419 
C 301 1419 294 1413 294 1285 
L 294 -1 
C 294 -115 301 -122 339 -122 
C 384 -122 397 -90 486 108 
C 493 127 493 140 614 381 
C 934 -39 1472 -128 1779 -128 
C 2477 -128 2970 451 2970 1124 
C 2970 1454 2848 1708 2778 1823 
C 2509 2230 2221 2306 1914 2382 
C 1869 2402 1856 2402 1498 2490 
C 1152 2579 1005 2624 845 2796 
C 666 2992 602 3196 602 3399 
C 602 3812 934 4263 1478 4263 
C 2157 4263 2579 3786 2675 2993 
C 2694 2878 2701 2872 2746 2872 
C 2803 2872 2803 2891 2803 2999 
L 2803 4290 
z
" transform="scale(0.015625)"/>
       <path id="CMR17-68" d="M 2656 1933 
C 2656 2259 2592 2790 1837 2790 
C 1312 2790 1056 2368 979 2157 
L 973 2157 
L 973 4396 
L 211 4326 
L 211 4160 
C 589 4160 646 4122 646 3817 
L 646 426 
C 646 184 621 153 211 153 
L 211 -13 
C 365 0 646 0 813 0 
C 979 0 1267 0 1421 -13 
L 1421 153 
C 1011 153 986 178 986 428 
L 986 1658 
C 986 2247 1344 2688 1792 2688 
C 2266 2688 2317 2266 2317 1958 
L 2317 428 
C 2317 184 2291 153 1882 153 
L 1882 -13 
C 2035 0 2317 0 2483 0 
C 2650 0 2938 0 3091 -13 
L 3091 153 
C 2682 153 2656 178 2656 428 
L 2656 1933 
z
" transform="scale(0.015625)"/>
       <path id="CMR17-62" d="M 960 4396 
L 198 4326 
L 198 4160 
C 576 4160 634 4122 634 3817 
L 634 -13 
L 749 -13 
L 934 441 
C 1120 141 1395 -64 1766 -64 
C 2406 -64 3053 500 3053 1370 
C 3053 2188 2477 2790 1830 2790 
C 1434 2790 1152 2579 960 2330 
L 960 4396 
z
M 973 2004 
C 973 2118 973 2138 1062 2272 
C 1312 2657 1670 2688 1792 2688 
C 1984 2688 2643 2585 2643 1376 
C 2643 108 1888 38 1734 38 
C 1536 38 1248 114 1043 486 
C 973 608 973 621 973 735 
L 973 2004 
z
" transform="scale(0.015625)"/>
      </defs>
      <use xlink:href="#CMR17-53" transform="scale(0.996264)"/>
      <use xlink:href="#CMR17-68" transform="translate(50.89537 0) scale(0.996264)"/>
      <use xlink:href="#CMR17-72" transform="translate(101.79074 0) scale(0.996264)"/>
      <use xlink:href="#CMR17-75" transform="translate(137.071507 0) scale(0.996264)"/>
      <use xlink:href="#CMR17-62" transform="translate(187.966877 0) scale(0.996264)"/>
      <use xlink:href="#CMR17-73" transform="translate(238.862247 0) scale(0.996264)"/>
     </g>
    </g>
    <g id="patch_21">
     <path d="M 53.661347 209.960253 
L 73.653347 209.960253 
L 73.653347 202.963053 
L 53.661347 202.963053 
z
" style="fill: #5e5a8a; stroke: #292929; stroke-width: 0.625; stroke-linejoin: miter"/>
    </g>
    <g id="text_12">
     <!-- Desert -->
     <g transform="translate(81.650147 209.960253) scale(0.09996 -0.09996)">
      <defs>
       <path id="CMR17-44" d="M 333 4352 
L 333 4186 
C 774 4186 845 4186 845 3900 
L 845 452 
C 845 166 774 166 333 166 
L 333 0 
L 2368 0 
C 3398 0 4224 943 4224 2141 
C 4224 3346 3411 4352 2368 4352 
L 333 4352 
z
M 1523 166 
C 1267 166 1254 197 1254 414 
L 1254 3938 
C 1254 4155 1267 4186 1523 4186 
L 2240 4186 
C 2771 4186 3750 3874 3750 2141 
C 3750 1242 3488 879 3366 707 
C 3213 510 2848 166 2240 166 
L 1523 166 
z
" transform="scale(0.015625)"/>
      </defs>
      <use xlink:href="#CMR17-44" transform="scale(0.996264)"/>
      <use xlink:href="#CMR17-65" transform="translate(70.393556 0) scale(0.996264)"/>
      <use xlink:href="#CMR17-73" transform="translate(110.879216 0) scale(0.996264)"/>
      <use xlink:href="#CMR17-65" transform="translate(146.680554 0) scale(0.996264)"/>
      <use xlink:href="#CMR17-72" transform="translate(187.166214 0) scale(0.996264)"/>
      <use xlink:href="#CMR17-74" transform="translate(222.446982 0) scale(0.996264)"/>
     </g>
    </g>
    <g id="patch_22">
     <path d="M 53.661347 223.891856 
L 73.653347 223.891856 
L 73.653347 216.894656 
L 53.661347 216.894656 
z
" style="fill: #ad256b; stroke: #292929; stroke-width: 0.625; stroke-linejoin: miter"/>
    </g>
    <g id="text_13">
     <!-- Mangrove -->
     <g transform="translate(81.650147 223.891856) scale(0.09996 -0.09996)">
      <defs>
       <path id="CMR17-4d" d="M 1338 4224 
C 1299 4320 1293 4320 1158 4320 
L 339 4320 
L 339 4160 
C 781 4160 851 4160 851 3875 
L 851 610 
C 851 451 851 153 339 153 
L 339 -13 
C 486 0 755 0 915 0 
C 1075 0 1344 0 1491 -13 
L 1491 153 
C 979 153 979 451 979 610 
L 979 4135 
L 986 4135 
L 2490 89 
C 2515 25 2528 -13 2579 -13 
C 2630 -13 2643 25 2669 89 
L 4186 4166 
L 4192 4166 
L 4192 438 
C 4192 153 4122 153 3680 153 
L 3680 -13 
C 3853 0 4198 0 4384 0 
C 4570 0 4922 0 5094 -13 
L 5094 153 
C 4653 153 4582 153 4582 438 
L 4582 3875 
C 4582 4160 4653 4160 5094 4160 
L 5094 4320 
L 4282 4320 
C 4147 4320 4141 4314 4102 4218 
L 2720 502 
L 1338 4224 
z
" transform="scale(0.015625)"/>
       <path id="CMR17-67" d="M 710 1164 
C 832 1068 1043 960 1299 960 
C 1805 960 2240 1357 2240 1888 
C 2240 2054 2189 2310 1997 2509 
C 2176 2692 2438 2752 2586 2752 
C 2611 2752 2650 2752 2682 2734 
C 2656 2728 2598 2703 2598 2605 
C 2598 2527 2656 2471 2739 2471 
C 2835 2471 2886 2533 2886 2614 
C 2886 2731 2790 2854 2586 2854 
C 2330 2854 2106 2738 1926 2580 
C 1734 2753 1504 2816 1299 2816 
C 794 2816 358 2419 358 1888 
C 358 1522 570 1292 634 1228 
C 442 1004 442 743 442 711 
C 442 545 506 302 723 168 
C 390 85 128 -169 128 -486 
C 128 -943 736 -1280 1466 -1280 
C 2170 -1280 2803 -956 2803 -479 
C 2803 384 1856 384 1363 384 
C 1216 384 954 384 922 391 
C 723 423 589 602 589 826 
C 589 883 589 1024 710 1164 
z
M 1299 1068 
C 736 1068 736 1760 736 1889 
C 736 2016 736 2708 1299 2708 
C 1862 2708 1862 2016 1862 1889 
C 1862 1760 1862 1068 1299 1068 
z
M 1466 -1171 
C 826 -1171 384 -835 384 -486 
C 384 -289 493 -105 634 -4 
C 794 104 858 104 1293 104 
C 1818 104 2547 104 2547 -486 
C 2547 -835 2106 -1171 1466 -1171 
z
" transform="scale(0.015625)"/>
      </defs>
      <use xlink:href="#CMR17-4d" transform="scale(0.996264)"/>
      <use xlink:href="#CMR17-61" transform="translate(84.686941 0) scale(0.996264)"/>
      <use xlink:href="#CMR17-6e" transform="translate(130.377418 0) scale(0.996264)"/>
      <use xlink:href="#CMR17-67" transform="translate(181.272787 0) scale(0.996264)"/>
      <use xlink:href="#CMR17-72" transform="translate(226.963265 0) scale(0.996264)"/>
      <use xlink:href="#CMR17-6f" transform="translate(262.244032 0) scale(0.996264)"/>
      <use xlink:href="#CMR17-76" transform="translate(305.332056 0) scale(0.996264)"/>
      <use xlink:href="#CMR17-65" transform="translate(351.022517 0) scale(0.996264)"/>
     </g>
    </g>
    <g id="patch_23">
     <path d="M 53.661347 237.823459 
L 73.653347 237.823459 
L 73.653347 230.826259 
L 53.661347 230.826259 
z
" style="fill: #ab8118; stroke: #292929; stroke-width: 0.625; stroke-linejoin: miter"/>
    </g>
    <g id="text_14">
     <!-- Thorn -->
     <g transform="translate(81.650147 237.823459) scale(0.09996 -0.09996)">
      <use xlink:href="#CMR17-54" transform="scale(0.996264)"/>
      <use xlink:href="#CMR17-68" transform="translate(66.509881 0) scale(0.996264)"/>
      <use xlink:href="#CMR17-6f" transform="translate(117.40525 0) scale(0.996264)"/>
      <use xlink:href="#CMR17-72" transform="translate(163.095727 0) scale(0.996264)"/>
      <use xlink:href="#CMR17-6e" transform="translate(198.376495 0) scale(0.996264)"/>
     </g>
    </g>
    <g id="patch_24">
     <path d="M 53.661347 251.755062 
L 73.653347 251.755062 
L 73.653347 244.757862 
L 53.661347 244.757862 
z
" style="fill: #477613; stroke: #292929; stroke-width: 0.625; stroke-linejoin: miter"/>
    </g>
    <g id="text_15">
     <!-- Water -->
     <g transform="translate(81.650147 251.755062) scale(0.09996 -0.09996)">
      <use xlink:href="#CMR17-57" transform="scale(0.996264)"/>
      <use xlink:href="#CMR17-61" transform="translate(87.289395 0) scale(0.996264)"/>
      <use xlink:href="#CMR17-74" transform="translate(132.979872 0) scale(0.996264)"/>
      <use xlink:href="#CMR17-65" transform="translate(168.260639 0) scale(0.996264)"/>
      <use xlink:href="#CMR17-72" transform="translate(208.7463 0) scale(0.996264)"/>
     </g>
    </g>
   </g>
  </g>
 </g>
 <defs>
  <clipPath id="pecbafa9ffd">
   <rect x="44.664947" y="26.428985" width="230.375053" height="236.25888"/>
  </clipPath>
 </defs>
</svg>
