<?xml version="1.0" encoding="utf-8" standalone="no"?>
<!DOCTYPE svg PUBLIC "-//W3C//DTD SVG 1.1//EN"
  "http://www.w3.org/Graphics/SVG/1.1/DTD/svg11.dtd">
<svg xmlns:xlink="http://www.w3.org/1999/xlink" width="288pt" height="288pt" viewBox="0 0 288 288" xmlns="http://www.w3.org/2000/svg" version="1.1">
 <metadata>
  <rdf:RDF xmlns:dc="http://purl.org/dc/elements/1.1/" xmlns:cc="http://creativecommons.org/ns#" xmlns:rdf="http://www.w3.org/1999/02/22-rdf-syntax-ns#">
   <cc:Work>
    <dc:type rdf:resource="http://purl.org/dc/dcmitype/StillImage"/>
    <dc:date>2023-01-04T01:09:59.462191</dc:date>
    <dc:format>image/svg+xml</dc:format>
    <dc:creator>
     <cc:Agent>
      <dc:title>Matplotlib v3.6.2, https://matplotlib.org/</dc:title>
     </cc:Agent>
    </dc:creator>
   </cc:Work>
  </rdf:RDF>
 </metadata>
 <defs>
  <style type="text/css">*{stroke-linejoin: round; stroke-linecap: butt}</style>
 </defs>
 <g id="figure_1">
  <g id="patch_1">
   <path d="M 0 288 
L 288 288 
L 288 0 
L 0 0 
z
" style="fill: #ffffff"/>
  </g>
  <g id="axes_1">
   <g id="patch_2">
    <path d="M 42.390456 262.687865 
L 275.04 262.687865 
L 275.04 25.875732 
L 42.390456 25.875732 
z
" style="fill: #ffffff"/>
   </g>
   <g id="patch_3">
    <path d="M 47.105487 224.651093 
L 53.185395 224.651093 
L 53.185395 212.491174 
L 47.105487 212.491174 
L 47.105487 224.651093 
z
" clip-path="url(#p69792365fe)" style="fill: #539681; stroke: #292929; stroke-width: 1.25; stroke-linejoin: miter"/>
   </g>
   <g id="patch_4">
    <path d="M 53.309475 212.239426 
L 59.389383 212.239426 
L 59.389383 205.659846 
L 53.309475 205.659846 
L 53.309475 212.239426 
z
" clip-path="url(#p69792365fe)" style="fill: #a04817; stroke: #292929; stroke-width: 1.25; stroke-linejoin: miter"/>
   </g>
   <g id="patch_5">
    <path d="M 59.513463 202.204636 
L 65.593371 202.204636 
L 65.593371 191.243495 
L 59.513463 191.243495 
L 59.513463 202.204636 
z
" clip-path="url(#p69792365fe)" style="fill: #5e5a8a; stroke: #292929; stroke-width: 1.25; stroke-linejoin: miter"/>
   </g>
   <g id="patch_6">
    <path d="M 65.71745 230.444928 
L 71.797358 230.444928 
L 71.797358 227.746514 
L 65.71745 227.746514 
L 65.71745 230.444928 
z
" clip-path="url(#p69792365fe)" style="fill: #ad256b; stroke: #292929; stroke-width: 1.25; stroke-linejoin: miter"/>
   </g>
   <g id="patch_7">
    <path d="M 71.921438 227.358811 
L 78.001346 227.358811 
L 78.001346 218.930664 
L 71.921438 218.930664 
L 71.921438 227.358811 
z
" clip-path="url(#p69792365fe)" style="fill: #ab8118; stroke: #292929; stroke-width: 1.25; stroke-linejoin: miter"/>
   </g>
   <g id="patch_8">
    <path d="M 78.125426 214.902687 
L 84.205334 214.902687 
L 84.205334 208.525747 
L 78.125426 208.525747 
L 78.125426 214.902687 
z
" clip-path="url(#p69792365fe)" style="fill: #477613; stroke: #292929; stroke-width: 1.25; stroke-linejoin: miter"/>
   </g>
   <g id="patch_9">
    <path d="M 93.635396 215.166325 
L 99.715304 215.166325 
L 99.715304 197.079719 
L 93.635396 197.079719 
L 93.635396 215.166325 
z
" clip-path="url(#p69792365fe)" style="fill: #539681; stroke: #292929; stroke-width: 1.25; stroke-linejoin: miter"/>
   </g>
   <g id="patch_10">
    <path d="M 99.839383 191.541251 
L 105.919292 191.541251 
L 105.919292 179.788162 
L 99.839383 179.788162 
L 99.839383 191.541251 
z
" clip-path="url(#p69792365fe)" style="fill: #a04817; stroke: #292929; stroke-width: 1.25; stroke-linejoin: miter"/>
   </g>
   <g id="patch_11">
    <path d="M 106.043371 164.616049 
L 112.123279 164.616049 
L 112.123279 144.595063 
L 106.043371 144.595063 
L 106.043371 164.616049 
z
" clip-path="url(#p69792365fe)" style="fill: #5e5a8a; stroke: #292929; stroke-width: 1.25; stroke-linejoin: miter"/>
   </g>
   <g id="patch_12">
    <path d="M 112.247359 220.797841 
L 118.327267 220.797841 
L 118.327267 218.161461 
L 112.247359 218.161461 
L 112.247359 220.797841 
z
" clip-path="url(#p69792365fe)" style="fill: #ad256b; stroke: #292929; stroke-width: 1.25; stroke-linejoin: miter"/>
   </g>
   <g id="patch_13">
    <path d="M 118.451347 212.719143 
L 124.531255 212.719143 
L 124.531255 201.038426 
L 118.451347 201.038426 
L 118.451347 212.719143 
z
" clip-path="url(#p69792365fe)" style="fill: #ab8118; stroke: #292929; stroke-width: 1.25; stroke-linejoin: miter"/>
   </g>
   <g id="patch_14">
    <path d="M 124.655335 205.306261 
L 130.735243 205.306261 
L 130.735243 175.644392 
L 124.655335 175.644392 
L 124.655335 205.306261 
z
" clip-path="url(#p69792365fe)" style="fill: #477613; stroke: #292929; stroke-width: 1.25; stroke-linejoin: miter"/>
   </g>
   <g id="patch_15">
    <path d="M 140.165304 203.109277 
L 146.245212 203.109277 
L 146.245212 184.396659 
L 140.165304 184.396659 
L 140.165304 203.109277 
z
" clip-path="url(#p69792365fe)" style="fill: #539681; stroke: #292929; stroke-width: 1.25; stroke-linejoin: miter"/>
   </g>
   <g id="patch_16">
    <path d="M 146.369292 175.37972 
L 152.4492 175.37972 
L 152.4492 154.371383 
L 146.369292 154.371383 
L 146.369292 175.37972 
z
" clip-path="url(#p69792365fe)" style="fill: #a04817; stroke: #292929; stroke-width: 1.25; stroke-linejoin: miter"/>
   </g>
   <g id="patch_17">
    <path d="M 152.57328 137.892452 
L 158.653188 137.892452 
L 158.653188 109.866173 
L 152.57328 109.866173 
L 152.57328 137.892452 
z
" clip-path="url(#p69792365fe)" style="fill: #5e5a8a; stroke: #292929; stroke-width: 1.25; stroke-linejoin: miter"/>
   </g>
   <g id="patch_18">
    <path d="M 158.777268 224.793768 
L 164.857176 224.793768 
L 164.857176 220.670675 
L 158.777268 220.670675 
L 158.777268 224.793768 
z
" clip-path="url(#p69792365fe)" style="fill: #ad256b; stroke: #292929; stroke-width: 1.25; stroke-linejoin: miter"/>
   </g>
   <g id="patch_19">
    <path d="M 164.981256 209.7085 
L 171.061164 209.7085 
L 171.061164 192.800511 
L 164.981256 192.800511 
L 164.981256 209.7085 
z
" clip-path="url(#p69792365fe)" style="fill: #ab8118; stroke: #292929; stroke-width: 1.25; stroke-linejoin: miter"/>
   </g>
   <g id="patch_20">
    <path d="M 171.185244 221.961985 
L 177.265152 221.961985 
L 177.265152 179.473864 
L 171.185244 179.473864 
L 171.185244 221.961985 
z
" clip-path="url(#p69792365fe)" style="fill: #477613; stroke: #292929; stroke-width: 1.25; stroke-linejoin: miter"/>
   </g>
   <g id="patch_21">
    <path d="M 186.695213 169.08549 
L 192.775121 169.08549 
L 192.775121 142.121517 
L 186.695213 142.121517 
L 186.695213 169.08549 
z
" clip-path="url(#p69792365fe)" style="fill: #539681; stroke: #292929; stroke-width: 1.25; stroke-linejoin: miter"/>
   </g>
   <g id="patch_22">
    <path d="M 192.899201 141.481032 
L 198.979109 141.481032 
L 198.979109 115.745819 
L 192.899201 115.745819 
L 192.899201 141.481032 
z
" clip-path="url(#p69792365fe)" style="fill: #a04817; stroke: #292929; stroke-width: 1.25; stroke-linejoin: miter"/>
   </g>
   <g id="patch_23">
    <path d="M 199.103189 114.934227 
L 205.183097 114.934227 
L 205.183097 87.736082 
L 199.103189 87.736082 
L 199.103189 114.934227 
z
" clip-path="url(#p69792365fe)" style="fill: #5e5a8a; stroke: #292929; stroke-width: 1.25; stroke-linejoin: miter"/>
   </g>
   <g id="patch_24">
    <path d="M 205.307177 160.411797 
L 211.387085 160.411797 
L 211.387085 144.077091 
L 205.307177 144.077091 
L 205.307177 160.411797 
z
" clip-path="url(#p69792365fe)" style="fill: #ad256b; stroke: #292929; stroke-width: 1.25; stroke-linejoin: miter"/>
   </g>
   <g id="patch_25">
    <path d="M 211.511165 145.095458 
L 217.591073 145.095458 
L 217.591073 130.104273 
L 211.511165 130.104273 
L 211.511165 145.095458 
z
" clip-path="url(#p69792365fe)" style="fill: #ab8118; stroke: #292929; stroke-width: 1.25; stroke-linejoin: miter"/>
   </g>
   <g id="patch_26">
    <path d="M 217.715152 235.964785 
L 223.79506 235.964785 
L 223.79506 222.880065 
L 217.715152 222.880065 
L 217.715152 235.964785 
z
" clip-path="url(#p69792365fe)" style="fill: #477613; stroke: #292929; stroke-width: 1.25; stroke-linejoin: miter"/>
   </g>
   <g id="patch_27">
    <path d="M 233.225122 170.475018 
L 239.30503 170.475018 
L 239.30503 141.11504 
L 233.225122 141.11504 
L 233.225122 170.475018 
z
" clip-path="url(#p69792365fe)" style="fill: #539681; stroke: #292929; stroke-width: 1.25; stroke-linejoin: miter"/>
   </g>
   <g id="patch_28">
    <path d="M 239.42911 143.106283 
L 245.509018 143.106283 
L 245.509018 100.545791 
L 239.42911 100.545791 
L 239.42911 143.106283 
z
" clip-path="url(#p69792365fe)" style="fill: #a04817; stroke: #292929; stroke-width: 1.25; stroke-linejoin: miter"/>
   </g>
   <g id="patch_29">
    <path d="M 245.633098 104.912878 
L 251.713006 104.912878 
L 251.713006 59.691193 
L 245.633098 59.691193 
L 245.633098 104.912878 
z
" clip-path="url(#p69792365fe)" style="fill: #5e5a8a; stroke: #292929; stroke-width: 1.25; stroke-linejoin: miter"/>
   </g>
   <g id="patch_30">
    <path d="M 251.837085 234.861641 
L 257.916994 234.861641 
L 257.916994 229.976582 
L 251.837085 229.976582 
L 251.837085 234.861641 
z
" clip-path="url(#p69792365fe)" style="fill: #ad256b; stroke: #292929; stroke-width: 1.25; stroke-linejoin: miter"/>
   </g>
   <g id="patch_31">
    <path d="M 258.041073 198.964473 
L 264.120981 198.964473 
L 264.120981 172.168505 
L 258.041073 172.168505 
L 258.041073 198.964473 
z
" clip-path="url(#p69792365fe)" style="fill: #ab8118; stroke: #292929; stroke-width: 1.25; stroke-linejoin: miter"/>
   </g>
   <g id="patch_32">
    <path d="M 264.245061 246.237366 
L 270.324969 246.237366 
L 270.324969 242.912424 
L 264.245061 242.912424 
L 264.245061 246.237366 
z
" clip-path="url(#p69792365fe)" style="fill: #477613; stroke: #292929; stroke-width: 1.25; stroke-linejoin: miter"/>
   </g>
   <g id="patch_33">
    <path d="M 65.65541 255.760669 
L 65.65541 255.760669 
L 65.65541 255.760669 
L 65.65541 255.760669 
z
" clip-path="url(#p69792365fe)" style="fill: #539681; stroke: #292929; stroke-width: 0.625; stroke-linejoin: miter"/>
   </g>
   <g id="patch_34">
    <path d="M 65.65541 255.760669 
L 65.65541 255.760669 
L 65.65541 255.760669 
L 65.65541 255.760669 
z
" clip-path="url(#p69792365fe)" style="fill: #a04817; stroke: #292929; stroke-width: 0.625; stroke-linejoin: miter"/>
   </g>
   <g id="patch_35">
    <path d="M 65.65541 255.760669 
L 65.65541 255.760669 
L 65.65541 255.760669 
L 65.65541 255.760669 
z
" clip-path="url(#p69792365fe)" style="fill: #5e5a8a; stroke: #292929; stroke-width: 0.625; stroke-linejoin: miter"/>
   </g>
   <g id="patch_36">
    <path d="M 65.65541 255.760669 
L 65.65541 255.760669 
L 65.65541 255.760669 
L 65.65541 255.760669 
z
" clip-path="url(#p69792365fe)" style="fill: #ad256b; stroke: #292929; stroke-width: 0.625; stroke-linejoin: miter"/>
   </g>
   <g id="patch_37">
    <path d="M 65.65541 255.760669 
L 65.65541 255.760669 
L 65.65541 255.760669 
L 65.65541 255.760669 
z
" clip-path="url(#p69792365fe)" style="fill: #ab8118; stroke: #292929; stroke-width: 0.625; stroke-linejoin: miter"/>
   </g>
   <g id="patch_38">
    <path d="M 65.65541 255.760669 
L 65.65541 255.760669 
L 65.65541 255.760669 
L 65.65541 255.760669 
z
" clip-path="url(#p69792365fe)" style="fill: #477613; stroke: #292929; stroke-width: 0.625; stroke-linejoin: miter"/>
   </g>
   <g id="matplotlib.axis_1">
    <g id="xtick_1">
     <g id="line2d_1">
      <defs>
       <path id="mce6e6fd35e" d="M 0 0 
L 0 -4 
" style="stroke: #000000; stroke-width: 0.5"/>
      </defs>
      <g>
       <use xlink:href="#mce6e6fd35e" x="65.65541" y="262.687865" style="stroke: #000000; stroke-width: 0.5"/>
      </g>
     </g>
     <g id="line2d_2">
      <defs>
       <path id="m9aa15b1e70" d="M 0 0 
L 0 4 
" style="stroke: #000000; stroke-width: 0.5"/>
      </defs>
      <g>
       <use xlink:href="#m9aa15b1e70" x="65.65541" y="25.875732" style="stroke: #000000; stroke-width: 0.5"/>
      </g>
     </g>
     <g id="text_1">
      <!-- Blue -->
      <g transform="translate(55.489743 273.103597) scale(0.09996 -0.09996)">
       <defs>
        <path id="CMR17-42" d="M 333 4352 
L 333 4186 
C 774 4186 845 4186 845 3900 
L 845 452 
C 845 166 774 166 333 166 
L 333 0 
L 2534 0 
C 3354 0 3885 583 3885 1164 
C 3885 1741 3360 2233 2675 2233 
C 3290 2356 3718 2771 3718 3264 
C 3718 3802 3194 4352 2368 4352 
L 333 4352 
z
M 1248 2304 
L 1248 3937 
C 1248 4155 1261 4186 1517 4186 
L 2336 4186 
C 2970 4186 3251 3674 3251 3277 
C 3251 2791 2861 2304 2170 2304 
L 1248 2304 
z
M 1517 166 
C 1261 166 1248 197 1248 413 
L 1248 2202 
L 2432 2202 
C 3091 2202 3411 1625 3411 1162 
C 3411 699 3046 166 2349 166 
L 1517 166 
z
" transform="scale(0.015625)"/>
        <path id="CMR17-6c" d="M 979 4396 
L 218 4326 
L 218 4160 
C 595 4160 653 4122 653 3817 
L 653 426 
C 653 184 627 153 218 153 
L 218 -13 
C 371 0 653 0 813 0 
C 979 0 1261 0 1414 -13 
L 1414 153 
C 1005 153 979 178 979 426 
L 979 4396 
z
" transform="scale(0.015625)"/>
        <path id="CMR17-75" d="M 1882 2693 
L 1882 2528 
C 2259 2528 2317 2489 2317 2186 
L 2317 1032 
C 2317 500 2029 38 1555 38 
C 1030 38 986 348 986 678 
L 986 2763 
L 211 2693 
L 211 2528 
C 467 2528 640 2528 646 2274 
L 646 1058 
C 646 633 646 361 813 183 
C 896 101 1056 -64 1517 -64 
C 2061 -64 2272 377 2323 506 
L 2330 506 
L 2330 -63 
L 3091 -63 
L 3091 128 
C 2714 128 2656 166 2656 473 
L 2656 2763 
L 1882 2693 
z
" transform="scale(0.015625)"/>
        <path id="CMR17-65" d="M 2438 1472 
C 2464 1498 2464 1511 2464 1576 
C 2464 2238 2118 2816 1389 2816 
C 710 2816 173 2169 173 1383 
C 173 551 781 -64 1459 -64 
C 2176 -64 2458 607 2458 740 
C 2458 784 2419 784 2406 784 
C 2362 784 2355 771 2330 696 
C 2189 265 1837 51 1504 51 
C 1229 51 954 203 781 480 
C 582 803 582 1176 582 1472 
L 2438 1472 
z
M 589 1568 
C 634 2505 1126 2714 1382 2714 
C 1818 2714 2112 2297 2118 1568 
L 589 1568 
z
" transform="scale(0.015625)"/>
       </defs>
       <use xlink:href="#CMR17-42" transform="scale(0.996264)"/>
       <use xlink:href="#CMR17-6c" transform="translate(65.188754 0) scale(0.996264)"/>
       <use xlink:href="#CMR17-75" transform="translate(90.059813 0) scale(0.996264)"/>
       <use xlink:href="#CMR17-65" transform="translate(140.955183 0) scale(0.996264)"/>
      </g>
     </g>
    </g>
    <g id="xtick_2">
     <g id="line2d_3">
      <g>
       <use xlink:href="#mce6e6fd35e" x="112.185319" y="262.687865" style="stroke: #000000; stroke-width: 0.5"/>
      </g>
     </g>
     <g id="line2d_4">
      <g>
       <use xlink:href="#m9aa15b1e70" x="112.185319" y="25.875732" style="stroke: #000000; stroke-width: 0.5"/>
      </g>
     </g>
     <g id="text_2">
      <!-- Green -->
      <g transform="translate(98.771958 273.103597) scale(0.09996 -0.09996)">
       <defs>
        <path id="CMR17-47" d="M 3974 1233 
C 3974 1473 3994 1505 4390 1505 
L 4390 1670 
C 4237 1664 3891 1664 3718 1664 
C 3539 1664 3040 1664 2797 1664 
L 2797 1505 
L 2989 1505 
C 3539 1505 3552 1434 3552 1201 
L 3552 774 
C 3552 63 2720 63 2522 63 
C 1862 63 781 511 781 2160 
C 781 3808 1843 4250 2464 4250 
C 3187 4250 3712 3626 3834 2741 
C 3846 2664 3846 2651 3904 2651 
C 3974 2651 3974 2664 3974 2779 
L 3974 4288 
C 3974 4402 3968 4409 3930 4409 
C 3904 4409 3898 4402 3853 4326 
L 3571 3791 
C 3258 4187 2874 4416 2381 4416 
C 1286 4416 294 3456 294 2148 
C 294 845 1267 -128 2394 -128 
C 2912 -128 3418 56 3616 417 
C 3725 158 3904 -20 3936 -20 
C 3968 -20 3974 -13 3974 100 
L 3974 1233 
z
" transform="scale(0.015625)"/>
        <path id="CMR17-72" d="M 960 1497 
C 960 2112 1222 2688 1702 2688 
C 1747 2688 1792 2682 1837 2662 
C 1837 2662 1696 2617 1696 2452 
C 1696 2298 1818 2234 1914 2234 
C 1990 2234 2131 2279 2131 2458 
C 2131 2663 1926 2790 1709 2790 
C 1222 2790 1011 2317 947 2093 
L 941 2093 
L 941 2790 
L 198 2720 
L 198 2554 
C 576 2554 634 2515 634 2208 
L 634 428 
C 634 184 608 153 198 153 
L 198 -13 
C 352 0 646 0 813 0 
C 998 0 1325 0 1498 -13 
L 1498 153 
C 1037 153 960 153 960 440 
L 960 1497 
z
" transform="scale(0.015625)"/>
        <path id="CMR17-6e" d="M 2656 1933 
C 2656 2259 2592 2790 1837 2790 
C 1331 2790 1069 2400 973 2144 
L 966 2144 
L 966 2790 
L 211 2720 
L 211 2554 
C 589 2554 646 2515 646 2208 
L 646 428 
C 646 184 621 153 211 153 
L 211 -13 
C 365 0 646 0 813 0 
C 979 0 1267 0 1421 -13 
L 1421 153 
C 1011 153 986 178 986 428 
L 986 1658 
C 986 2247 1344 2688 1792 2688 
C 2266 2688 2317 2266 2317 1958 
L 2317 428 
C 2317 184 2291 153 1882 153 
L 1882 -13 
C 2035 0 2317 0 2483 0 
C 2650 0 2938 0 3091 -13 
L 3091 153 
C 2682 153 2656 178 2656 428 
L 2656 1933 
z
" transform="scale(0.015625)"/>
       </defs>
       <use xlink:href="#CMR17-47" transform="scale(0.996264)"/>
       <use xlink:href="#CMR17-72" transform="translate(72.355346 0) scale(0.996264)"/>
       <use xlink:href="#CMR17-65" transform="translate(107.636114 0) scale(0.996264)"/>
       <use xlink:href="#CMR17-65" transform="translate(148.121774 0) scale(0.996264)"/>
       <use xlink:href="#CMR17-6e" transform="translate(188.607435 0) scale(0.996264)"/>
      </g>
     </g>
    </g>
    <g id="xtick_3">
     <g id="line2d_5">
      <g>
       <use xlink:href="#mce6e6fd35e" x="158.715228" y="262.687865" style="stroke: #000000; stroke-width: 0.5"/>
      </g>
     </g>
     <g id="line2d_6">
      <g>
       <use xlink:href="#m9aa15b1e70" x="158.715228" y="25.875732" style="stroke: #000000; stroke-width: 0.5"/>
      </g>
     </g>
     <g id="text_3">
      <!-- Red -->
      <g transform="translate(149.828958 273.103597) scale(0.09996 -0.09996)">
       <defs>
        <path id="CMR17-52" d="M 2509 2146 
C 3117 2268 3629 2676 3629 3186 
C 3629 3785 2950 4326 2054 4326 
L 333 4326 
L 333 4160 
C 774 4160 845 4160 845 3873 
L 845 415 
C 845 128 774 128 333 128 
L 333 -26 
C 518 -26 851 -26 1050 -26 
C 1248 -26 1581 -26 1766 -26 
L 1766 128 
C 1325 128 1254 128 1254 417 
L 1254 2112 
L 2003 2112 
C 2368 2112 2573 1964 2662 1881 
C 2918 1632 2918 1459 2918 1024 
C 2918 595 2918 377 3110 160 
C 3354 -102 3680 -128 3821 -128 
C 4294 -128 4365 396 4365 503 
C 4365 540 4365 585 4307 585 
C 4256 585 4250 547 4250 522 
C 4218 112 4032 -26 3834 -26 
C 3482 -26 3443 375 3405 764 
C 3386 898 3373 993 3360 1133 
C 3322 1452 3270 1917 2509 2146 
z
M 1984 2214 
L 1254 2214 
L 1254 3913 
C 1254 4129 1267 4160 1523 4160 
L 1990 4160 
C 2522 4160 3142 3977 3142 3190 
C 3142 2372 2464 2214 1984 2214 
z
" transform="scale(0.015625)"/>
        <path id="CMR17-64" d="M 1869 4326 
L 1869 4160 
C 2246 4160 2304 4122 2304 3820 
L 2304 2345 
C 2278 2377 2016 2790 1498 2790 
C 845 2790 211 2208 211 1364 
C 211 525 806 -64 1434 -64 
C 1978 -64 2259 337 2291 380 
L 2291 -63 
L 3066 -63 
L 3066 128 
C 2688 128 2630 166 2630 473 
L 2630 4396 
L 1869 4326 
z
M 2291 755 
C 2291 563 2176 390 2029 262 
C 1811 70 1594 38 1472 38 
C 1286 38 621 134 621 1356 
C 621 2612 1363 2688 1530 2688 
C 1824 2688 2061 2522 2208 2291 
C 2291 2157 2291 2138 2291 2023 
L 2291 755 
z
" transform="scale(0.015625)"/>
       </defs>
       <use xlink:href="#CMR17-52" transform="scale(0.996264)"/>
       <use xlink:href="#CMR17-65" transform="translate(67.791102 0) scale(0.996264)"/>
       <use xlink:href="#CMR17-64" transform="translate(108.276762 0) scale(0.996264)"/>
      </g>
     </g>
    </g>
    <g id="xtick_4">
     <g id="line2d_7">
      <g>
       <use xlink:href="#mce6e6fd35e" x="205.245137" y="262.687865" style="stroke: #000000; stroke-width: 0.5"/>
      </g>
     </g>
     <g id="line2d_8">
      <g>
       <use xlink:href="#m9aa15b1e70" x="205.245137" y="25.875732" style="stroke: #000000; stroke-width: 0.5"/>
      </g>
     </g>
     <g id="text_4">
      <!-- NIR -->
      <g transform="translate(195.79371 273.103597) scale(0.09996 -0.09996)">
       <defs>
        <path id="CMR17-4e" d="M 1312 4250 
C 1267 4320 1261 4320 1139 4320 
L 326 4320 
L 326 4160 
L 448 4160 
C 704 4160 819 4129 838 4122 
L 838 610 
C 838 451 838 153 326 153 
L 326 -13 
C 474 0 742 0 902 0 
C 1062 0 1331 0 1478 -13 
L 1478 153 
C 966 153 966 451 966 610 
L 966 4033 
C 1011 3995 1011 3982 1056 3919 
L 3430 76 
C 3475 0 3494 0 3526 0 
C 3590 0 3590 19 3590 139 
L 3590 3705 
C 3590 3863 3590 4160 4102 4160 
L 4102 4326 
C 3955 4320 3686 4320 3526 4320 
C 3366 4320 3098 4320 2950 4326 
L 2950 4160 
C 3462 4160 3462 3862 3462 3703 
L 3462 763 
L 1312 4250 
z
" transform="scale(0.015625)"/>
        <path id="CMR17-49" d="M 1261 3905 
C 1261 4192 1338 4192 1798 4192 
L 1798 4352 
C 1594 4352 1267 4352 1050 4352 
C 832 4352 506 4352 301 4352 
L 301 4192 
C 762 4192 838 4192 838 3905 
L 838 447 
C 838 160 762 160 301 160 
L 301 0 
C 506 0 832 0 1050 0 
C 1267 0 1594 0 1798 0 
L 1798 160 
C 1338 160 1261 160 1261 447 
L 1261 3905 
z
" transform="scale(0.015625)"/>
       </defs>
       <use xlink:href="#CMR17-4e" transform="scale(0.996264)"/>
       <use xlink:href="#CMR17-49" transform="translate(69.07243 0) scale(0.996264)"/>
       <use xlink:href="#CMR17-52" transform="translate(101.710839 0) scale(0.996264)"/>
      </g>
     </g>
    </g>
    <g id="xtick_5">
     <g id="line2d_9">
      <g>
       <use xlink:href="#mce6e6fd35e" x="251.775046" y="262.687865" style="stroke: #000000; stroke-width: 0.5"/>
      </g>
     </g>
     <g id="line2d_10">
      <g>
       <use xlink:href="#m9aa15b1e70" x="251.775046" y="25.875732" style="stroke: #000000; stroke-width: 0.5"/>
      </g>
     </g>
     <g id="text_5">
      <!-- SWIR -->
      <g transform="translate(238.058941 273.103597) scale(0.09996 -0.09996)">
       <defs>
        <path id="CMR17-53" d="M 2803 4290 
C 2803 4404 2797 4411 2758 4411 
C 2720 4411 2707 4385 2682 4328 
L 2490 3907 
C 2246 4257 1875 4416 1472 4416 
C 819 4416 294 3901 294 3253 
C 294 3056 339 2776 557 2510 
C 794 2218 1018 2167 1530 2033 
C 1722 1982 2042 1899 2106 1874 
C 2470 1722 2662 1341 2662 985 
C 2662 527 2336 38 1779 38 
C 1094 38 454 419 410 1311 
C 403 1413 397 1419 352 1419 
C 301 1419 294 1413 294 1285 
L 294 -1 
C 294 -115 301 -122 339 -122 
C 384 -122 397 -90 486 108 
C 493 127 493 140 614 381 
C 934 -39 1472 -128 1779 -128 
C 2477 -128 2970 451 2970 1124 
C 2970 1454 2848 1708 2778 1823 
C 2509 2230 2221 2306 1914 2382 
C 1869 2402 1856 2402 1498 2490 
C 1152 2579 1005 2624 845 2796 
C 666 2992 602 3196 602 3399 
C 602 3812 934 4263 1478 4263 
C 2157 4263 2579 3786 2675 2993 
C 2694 2878 2701 2872 2746 2872 
C 2803 2872 2803 2891 2803 2999 
L 2803 4290 
z
" transform="scale(0.015625)"/>
        <path id="CMR17-57" d="M 5523 3764 
C 5581 3936 5677 4160 6048 4160 
L 6048 4326 
C 5939 4326 5715 4326 5600 4326 
C 5440 4326 5158 4326 5005 4332 
L 5005 4160 
C 5293 4160 5414 4000 5414 3847 
C 5414 3802 5408 3777 5382 3707 
L 4390 555 
L 3347 3873 
C 3328 3937 3322 3963 3322 3988 
C 3322 4160 3603 4160 3725 4160 
L 3725 4326 
C 3539 4326 3219 4326 3021 4326 
C 2861 4326 2573 4326 2426 4332 
L 2426 4160 
C 2720 4160 2797 4141 2861 4027 
C 2886 3969 2989 3638 2989 3619 
C 2989 3593 2976 3555 2970 3536 
L 2029 561 
L 986 3867 
C 954 3957 954 3969 954 3982 
C 954 4160 1235 4160 1363 4160 
L 1363 4326 
C 1178 4326 858 4326 659 4326 
C 493 4326 211 4326 58 4332 
L 58 4160 
C 442 4160 467 4122 531 3918 
L 1779 -20 
C 1811 -115 1811 -128 1869 -128 
C 1920 -128 1939 -115 1965 -26 
L 3053 3433 
L 4141 -26 
C 4166 -115 4186 -128 4237 -128 
C 4294 -128 4294 -115 4326 -20 
L 5523 3764 
z
" transform="scale(0.015625)"/>
       </defs>
       <use xlink:href="#CMR17-53" transform="scale(0.996264)"/>
       <use xlink:href="#CMR17-57" transform="translate(50.89537 0) scale(0.996264)"/>
       <use xlink:href="#CMR17-49" transform="translate(145.99202 0) scale(0.996264)"/>
       <use xlink:href="#CMR17-52" transform="translate(178.630429 0) scale(0.996264)"/>
      </g>
     </g>
    </g>
    <g id="xtick_6">
     <g id="line2d_11">
      <defs>
       <path id="me8fcb35fa4" d="M 0 0 
L 0 -2 
" style="stroke: #000000; stroke-width: 0.5"/>
      </defs>
      <g>
       <use xlink:href="#me8fcb35fa4" x="47.043447" y="262.687865" style="stroke: #000000; stroke-width: 0.5"/>
      </g>
     </g>
     <g id="line2d_12">
      <defs>
       <path id="m05ee0de269" d="M 0 0 
L 0 2 
" style="stroke: #000000; stroke-width: 0.5"/>
      </defs>
      <g>
       <use xlink:href="#m05ee0de269" x="47.043447" y="25.875732" style="stroke: #000000; stroke-width: 0.5"/>
      </g>
     </g>
    </g>
    <g id="xtick_7">
     <g id="line2d_13">
      <g>
       <use xlink:href="#me8fcb35fa4" x="56.349429" y="262.687865" style="stroke: #000000; stroke-width: 0.5"/>
      </g>
     </g>
     <g id="line2d_14">
      <g>
       <use xlink:href="#m05ee0de269" x="56.349429" y="25.875732" style="stroke: #000000; stroke-width: 0.5"/>
      </g>
     </g>
    </g>
    <g id="xtick_8">
     <g id="line2d_15">
      <g>
       <use xlink:href="#me8fcb35fa4" x="74.961392" y="262.687865" style="stroke: #000000; stroke-width: 0.5"/>
      </g>
     </g>
     <g id="line2d_16">
      <g>
       <use xlink:href="#m05ee0de269" x="74.961392" y="25.875732" style="stroke: #000000; stroke-width: 0.5"/>
      </g>
     </g>
    </g>
    <g id="xtick_9">
     <g id="line2d_17">
      <g>
       <use xlink:href="#me8fcb35fa4" x="84.267374" y="262.687865" style="stroke: #000000; stroke-width: 0.5"/>
      </g>
     </g>
     <g id="line2d_18">
      <g>
       <use xlink:href="#m05ee0de269" x="84.267374" y="25.875732" style="stroke: #000000; stroke-width: 0.5"/>
      </g>
     </g>
    </g>
    <g id="xtick_10">
     <g id="line2d_19">
      <g>
       <use xlink:href="#me8fcb35fa4" x="93.573356" y="262.687865" style="stroke: #000000; stroke-width: 0.5"/>
      </g>
     </g>
     <g id="line2d_20">
      <g>
       <use xlink:href="#m05ee0de269" x="93.573356" y="25.875732" style="stroke: #000000; stroke-width: 0.5"/>
      </g>
     </g>
    </g>
    <g id="xtick_11">
     <g id="line2d_21">
      <g>
       <use xlink:href="#me8fcb35fa4" x="102.879338" y="262.687865" style="stroke: #000000; stroke-width: 0.5"/>
      </g>
     </g>
     <g id="line2d_22">
      <g>
       <use xlink:href="#m05ee0de269" x="102.879338" y="25.875732" style="stroke: #000000; stroke-width: 0.5"/>
      </g>
     </g>
    </g>
    <g id="xtick_12">
     <g id="line2d_23">
      <g>
       <use xlink:href="#me8fcb35fa4" x="121.491301" y="262.687865" style="stroke: #000000; stroke-width: 0.5"/>
      </g>
     </g>
     <g id="line2d_24">
      <g>
       <use xlink:href="#m05ee0de269" x="121.491301" y="25.875732" style="stroke: #000000; stroke-width: 0.5"/>
      </g>
     </g>
    </g>
    <g id="xtick_13">
     <g id="line2d_25">
      <g>
       <use xlink:href="#me8fcb35fa4" x="130.797283" y="262.687865" style="stroke: #000000; stroke-width: 0.5"/>
      </g>
     </g>
     <g id="line2d_26">
      <g>
       <use xlink:href="#m05ee0de269" x="130.797283" y="25.875732" style="stroke: #000000; stroke-width: 0.5"/>
      </g>
     </g>
    </g>
    <g id="xtick_14">
     <g id="line2d_27">
      <g>
       <use xlink:href="#me8fcb35fa4" x="140.103265" y="262.687865" style="stroke: #000000; stroke-width: 0.5"/>
      </g>
     </g>
     <g id="line2d_28">
      <g>
       <use xlink:href="#m05ee0de269" x="140.103265" y="25.875732" style="stroke: #000000; stroke-width: 0.5"/>
      </g>
     </g>
    </g>
    <g id="xtick_15">
     <g id="line2d_29">
      <g>
       <use xlink:href="#me8fcb35fa4" x="149.409246" y="262.687865" style="stroke: #000000; stroke-width: 0.5"/>
      </g>
     </g>
     <g id="line2d_30">
      <g>
       <use xlink:href="#m05ee0de269" x="149.409246" y="25.875732" style="stroke: #000000; stroke-width: 0.5"/>
      </g>
     </g>
    </g>
    <g id="xtick_16">
     <g id="line2d_31">
      <g>
       <use xlink:href="#me8fcb35fa4" x="168.02121" y="262.687865" style="stroke: #000000; stroke-width: 0.5"/>
      </g>
     </g>
     <g id="line2d_32">
      <g>
       <use xlink:href="#m05ee0de269" x="168.02121" y="25.875732" style="stroke: #000000; stroke-width: 0.5"/>
      </g>
     </g>
    </g>
    <g id="xtick_17">
     <g id="line2d_33">
      <g>
       <use xlink:href="#me8fcb35fa4" x="177.327192" y="262.687865" style="stroke: #000000; stroke-width: 0.5"/>
      </g>
     </g>
     <g id="line2d_34">
      <g>
       <use xlink:href="#m05ee0de269" x="177.327192" y="25.875732" style="stroke: #000000; stroke-width: 0.5"/>
      </g>
     </g>
    </g>
    <g id="xtick_18">
     <g id="line2d_35">
      <g>
       <use xlink:href="#me8fcb35fa4" x="186.633173" y="262.687865" style="stroke: #000000; stroke-width: 0.5"/>
      </g>
     </g>
     <g id="line2d_36">
      <g>
       <use xlink:href="#m05ee0de269" x="186.633173" y="25.875732" style="stroke: #000000; stroke-width: 0.5"/>
      </g>
     </g>
    </g>
    <g id="xtick_19">
     <g id="line2d_37">
      <g>
       <use xlink:href="#me8fcb35fa4" x="195.939155" y="262.687865" style="stroke: #000000; stroke-width: 0.5"/>
      </g>
     </g>
     <g id="line2d_38">
      <g>
       <use xlink:href="#m05ee0de269" x="195.939155" y="25.875732" style="stroke: #000000; stroke-width: 0.5"/>
      </g>
     </g>
    </g>
    <g id="xtick_20">
     <g id="line2d_39">
      <g>
       <use xlink:href="#me8fcb35fa4" x="214.551119" y="262.687865" style="stroke: #000000; stroke-width: 0.5"/>
      </g>
     </g>
     <g id="line2d_40">
      <g>
       <use xlink:href="#m05ee0de269" x="214.551119" y="25.875732" style="stroke: #000000; stroke-width: 0.5"/>
      </g>
     </g>
    </g>
    <g id="xtick_21">
     <g id="line2d_41">
      <g>
       <use xlink:href="#me8fcb35fa4" x="223.8571" y="262.687865" style="stroke: #000000; stroke-width: 0.5"/>
      </g>
     </g>
     <g id="line2d_42">
      <g>
       <use xlink:href="#m05ee0de269" x="223.8571" y="25.875732" style="stroke: #000000; stroke-width: 0.5"/>
      </g>
     </g>
    </g>
    <g id="xtick_22">
     <g id="line2d_43">
      <g>
       <use xlink:href="#me8fcb35fa4" x="233.163082" y="262.687865" style="stroke: #000000; stroke-width: 0.5"/>
      </g>
     </g>
     <g id="line2d_44">
      <g>
       <use xlink:href="#m05ee0de269" x="233.163082" y="25.875732" style="stroke: #000000; stroke-width: 0.5"/>
      </g>
     </g>
    </g>
    <g id="xtick_23">
     <g id="line2d_45">
      <g>
       <use xlink:href="#me8fcb35fa4" x="242.469064" y="262.687865" style="stroke: #000000; stroke-width: 0.5"/>
      </g>
     </g>
     <g id="line2d_46">
      <g>
       <use xlink:href="#m05ee0de269" x="242.469064" y="25.875732" style="stroke: #000000; stroke-width: 0.5"/>
      </g>
     </g>
    </g>
    <g id="xtick_24">
     <g id="line2d_47">
      <g>
       <use xlink:href="#me8fcb35fa4" x="261.081027" y="262.687865" style="stroke: #000000; stroke-width: 0.5"/>
      </g>
     </g>
     <g id="line2d_48">
      <g>
       <use xlink:href="#m05ee0de269" x="261.081027" y="25.875732" style="stroke: #000000; stroke-width: 0.5"/>
      </g>
     </g>
    </g>
    <g id="xtick_25">
     <g id="line2d_49">
      <g>
       <use xlink:href="#me8fcb35fa4" x="270.387009" y="262.687865" style="stroke: #000000; stroke-width: 0.5"/>
      </g>
     </g>
     <g id="line2d_50">
      <g>
       <use xlink:href="#m05ee0de269" x="270.387009" y="25.875732" style="stroke: #000000; stroke-width: 0.5"/>
      </g>
     </g>
    </g>
   </g>
   <g id="matplotlib.axis_2">
    <g id="ytick_1">
     <g id="line2d_51">
      <defs>
       <path id="m615098ce54" d="M 0 0 
L 5 0 
" style="stroke: #000000; stroke-width: 0.5"/>
      </defs>
      <g>
       <use xlink:href="#m615098ce54" x="42.390456" y="255.760669" style="stroke: #000000; stroke-width: 0.5"/>
      </g>
     </g>
     <g id="line2d_52">
      <defs>
       <path id="m24253b85cb" d="M 0 0 
L -5 0 
" style="stroke: #000000; stroke-width: 0.5"/>
      </defs>
      <g>
       <use xlink:href="#m24253b85cb" x="275.04" y="255.760669" style="stroke: #000000; stroke-width: 0.5"/>
      </g>
     </g>
     <g id="text_6">
      <!-- $\mathdefault{0.0}$ -->
      <g transform="translate(25.812135 259.218535) scale(0.09996 -0.09996)">
       <defs>
        <path id="CMR17-30" d="M 2688 2025 
C 2688 2416 2682 3080 2413 3591 
C 2176 4039 1798 4198 1466 4198 
C 1158 4198 768 4058 525 3597 
C 269 3118 243 2524 243 2025 
C 243 1661 250 1106 448 619 
C 723 -39 1216 -128 1466 -128 
C 1760 -128 2208 -7 2470 600 
C 2662 1042 2688 1559 2688 2025 
z
M 1466 -26 
C 1056 -26 813 325 723 812 
C 653 1188 653 1738 653 2096 
C 653 2588 653 2997 736 3387 
C 858 3929 1216 4096 1466 4096 
C 1728 4096 2067 3923 2189 3400 
C 2272 3036 2278 2607 2278 2096 
C 2278 1680 2278 1169 2202 792 
C 2067 95 1690 -26 1466 -26 
z
" transform="scale(0.015625)"/>
        <path id="CMMI12-3a" d="M 1178 307 
C 1178 492 1024 619 870 619 
C 685 619 557 466 557 313 
C 557 128 710 0 864 0 
C 1050 0 1178 153 1178 307 
z
" transform="scale(0.015625)"/>
       </defs>
       <use xlink:href="#CMR17-30" transform="scale(0.996264)"/>
       <use xlink:href="#CMMI12-3a" transform="translate(45.690477 0) scale(0.996264)"/>
       <use xlink:href="#CMR17-30" transform="translate(72.787654 0) scale(0.996264)"/>
      </g>
     </g>
    </g>
    <g id="ytick_2">
     <g id="line2d_53">
      <g>
       <use xlink:href="#m615098ce54" x="42.390456" y="210.64613" style="stroke: #000000; stroke-width: 0.5"/>
      </g>
     </g>
     <g id="line2d_54">
      <g>
       <use xlink:href="#m24253b85cb" x="275.04" y="210.64613" style="stroke: #000000; stroke-width: 0.5"/>
      </g>
     </g>
     <g id="text_7">
      <!-- $\mathdefault{0.1}$ -->
      <g transform="translate(25.812135 214.103996) scale(0.09996 -0.09996)">
       <defs>
        <path id="CMR17-31" d="M 1702 4058 
C 1702 4192 1696 4192 1606 4192 
C 1357 3916 979 3827 621 3827 
C 602 3827 570 3827 563 3808 
C 557 3795 557 3782 557 3648 
C 755 3648 1088 3686 1344 3839 
L 1344 461 
C 1344 236 1331 160 781 160 
L 589 160 
L 589 0 
C 896 0 1216 0 1523 0 
C 1830 0 2150 0 2458 0 
L 2458 160 
L 2266 160 
C 1715 160 1702 230 1702 458 
L 1702 4058 
z
" transform="scale(0.015625)"/>
       </defs>
       <use xlink:href="#CMR17-30" transform="scale(0.996264)"/>
       <use xlink:href="#CMMI12-3a" transform="translate(45.690477 0) scale(0.996264)"/>
       <use xlink:href="#CMR17-31" transform="translate(72.787654 0) scale(0.996264)"/>
      </g>
     </g>
    </g>
    <g id="ytick_3">
     <g id="line2d_55">
      <g>
       <use xlink:href="#m615098ce54" x="42.390456" y="165.531592" style="stroke: #000000; stroke-width: 0.5"/>
      </g>
     </g>
     <g id="line2d_56">
      <g>
       <use xlink:href="#m24253b85cb" x="275.04" y="165.531592" style="stroke: #000000; stroke-width: 0.5"/>
      </g>
     </g>
     <g id="text_8">
      <!-- $\mathdefault{0.2}$ -->
      <g transform="translate(25.812135 168.989458) scale(0.09996 -0.09996)">
       <defs>
        <path id="CMR17-32" d="M 2669 989 
L 2554 989 
C 2490 536 2438 459 2413 420 
C 2381 369 1920 369 1830 369 
L 602 369 
C 832 619 1280 1072 1824 1597 
C 2214 1967 2669 2402 2669 3035 
C 2669 3790 2067 4224 1395 4224 
C 691 4224 262 3604 262 3030 
C 262 2780 448 2748 525 2748 
C 589 2748 781 2787 781 3010 
C 781 3207 614 3264 525 3264 
C 486 3264 448 3258 422 3245 
C 544 3790 915 4058 1306 4058 
C 1862 4058 2227 3617 2227 3035 
C 2227 2479 1901 2000 1536 1584 
L 262 146 
L 262 0 
L 2515 0 
L 2669 989 
z
" transform="scale(0.015625)"/>
       </defs>
       <use xlink:href="#CMR17-30" transform="scale(0.996264)"/>
       <use xlink:href="#CMMI12-3a" transform="translate(45.690477 0) scale(0.996264)"/>
       <use xlink:href="#CMR17-32" transform="translate(72.787654 0) scale(0.996264)"/>
      </g>
     </g>
    </g>
    <g id="ytick_4">
     <g id="line2d_57">
      <g>
       <use xlink:href="#m615098ce54" x="42.390456" y="120.417054" style="stroke: #000000; stroke-width: 0.5"/>
      </g>
     </g>
     <g id="line2d_58">
      <g>
       <use xlink:href="#m24253b85cb" x="275.04" y="120.417054" style="stroke: #000000; stroke-width: 0.5"/>
      </g>
     </g>
     <g id="text_9">
      <!-- $\mathdefault{0.3}$ -->
      <g transform="translate(25.812135 123.874919) scale(0.09996 -0.09996)">
       <defs>
        <path id="CMR17-33" d="M 1414 2157 
C 1984 2157 2234 1662 2234 1090 
C 2234 320 1824 25 1453 25 
C 1114 25 563 194 390 693 
C 422 680 454 680 486 680 
C 640 680 755 782 755 948 
C 755 1133 614 1216 486 1216 
C 378 1216 211 1165 211 926 
C 211 335 787 -128 1466 -128 
C 2176 -128 2720 430 2720 1085 
C 2720 1707 2208 2157 1600 2227 
C 2086 2328 2554 2756 2554 3329 
C 2554 3820 2048 4179 1472 4179 
C 890 4179 378 3829 378 3329 
C 378 3110 544 3072 627 3072 
C 762 3072 877 3155 877 3321 
C 877 3486 762 3569 627 3569 
C 602 3569 570 3569 544 3557 
C 730 3959 1235 4032 1459 4032 
C 1683 4032 2106 3925 2106 3320 
C 2106 3143 2080 2828 1862 2550 
C 1670 2304 1453 2304 1242 2284 
C 1210 2284 1062 2269 1037 2269 
C 992 2263 966 2257 966 2208 
C 966 2163 973 2157 1101 2157 
L 1414 2157 
z
" transform="scale(0.015625)"/>
       </defs>
       <use xlink:href="#CMR17-30" transform="scale(0.996264)"/>
       <use xlink:href="#CMMI12-3a" transform="translate(45.690477 0) scale(0.996264)"/>
       <use xlink:href="#CMR17-33" transform="translate(72.787654 0) scale(0.996264)"/>
      </g>
     </g>
    </g>
    <g id="ytick_5">
     <g id="line2d_59">
      <g>
       <use xlink:href="#m615098ce54" x="42.390456" y="75.302515" style="stroke: #000000; stroke-width: 0.5"/>
      </g>
     </g>
     <g id="line2d_60">
      <g>
       <use xlink:href="#m24253b85cb" x="275.04" y="75.302515" style="stroke: #000000; stroke-width: 0.5"/>
      </g>
     </g>
     <g id="text_10">
      <!-- $\mathdefault{0.4}$ -->
      <g transform="translate(25.812135 78.760381) scale(0.09996 -0.09996)">
       <defs>
        <path id="CMR17-34" d="M 2150 4122 
C 2150 4256 2144 4256 2029 4256 
L 128 1254 
L 128 1088 
L 1779 1088 
L 1779 457 
C 1779 224 1766 160 1318 160 
L 1197 160 
L 1197 0 
C 1402 0 1747 0 1965 0 
C 2182 0 2528 0 2733 0 
L 2733 160 
L 2611 160 
C 2163 160 2150 224 2150 457 
L 2150 1088 
L 2803 1088 
L 2803 1254 
L 2150 1254 
L 2150 4122 
z
M 1798 3703 
L 1798 1254 
L 256 1254 
L 1798 3703 
z
" transform="scale(0.015625)"/>
       </defs>
       <use xlink:href="#CMR17-30" transform="scale(0.996264)"/>
       <use xlink:href="#CMMI12-3a" transform="translate(45.690477 0) scale(0.996264)"/>
       <use xlink:href="#CMR17-34" transform="translate(72.787654 0) scale(0.996264)"/>
      </g>
     </g>
    </g>
    <g id="ytick_6">
     <g id="line2d_61">
      <g>
       <use xlink:href="#m615098ce54" x="42.390456" y="30.187977" style="stroke: #000000; stroke-width: 0.5"/>
      </g>
     </g>
     <g id="line2d_62">
      <g>
       <use xlink:href="#m24253b85cb" x="275.04" y="30.187977" style="stroke: #000000; stroke-width: 0.5"/>
      </g>
     </g>
     <g id="text_11">
      <!-- $\mathdefault{0.5}$ -->
      <g transform="translate(25.812135 33.645842) scale(0.09996 -0.09996)">
       <defs>
        <path id="CMR17-35" d="M 730 3692 
C 794 3666 1056 3584 1325 3584 
C 1920 3584 2246 3911 2432 4100 
C 2432 4157 2432 4192 2394 4192 
C 2387 4192 2374 4192 2323 4163 
C 2099 4058 1837 3973 1517 3973 
C 1325 3973 1037 3999 723 4139 
C 653 4171 640 4171 634 4171 
C 602 4171 595 4164 595 4037 
L 595 2203 
C 595 2089 595 2057 659 2057 
C 691 2057 704 2070 736 2114 
C 941 2401 1222 2522 1542 2522 
C 1766 2522 2246 2382 2246 1289 
C 2246 1085 2246 715 2054 421 
C 1894 159 1645 25 1370 25 
C 947 25 518 320 403 814 
C 429 807 480 795 506 795 
C 589 795 749 840 749 1038 
C 749 1210 627 1280 506 1280 
C 358 1280 262 1190 262 1011 
C 262 454 704 -128 1382 -128 
C 2042 -128 2669 440 2669 1264 
C 2669 2030 2170 2624 1549 2624 
C 1222 2624 947 2503 730 2274 
L 730 3692 
z
" transform="scale(0.015625)"/>
       </defs>
       <use xlink:href="#CMR17-30" transform="scale(0.996264)"/>
       <use xlink:href="#CMMI12-3a" transform="translate(45.690477 0) scale(0.996264)"/>
       <use xlink:href="#CMR17-35" transform="translate(72.787654 0) scale(0.996264)"/>
      </g>
     </g>
    </g>
    <g id="ytick_7">
     <g id="line2d_63">
      <defs>
       <path id="m1a5ba102e1" d="M 0 0 
L 3 0 
" style="stroke: #000000; stroke-width: 0.5"/>
      </defs>
      <g>
       <use xlink:href="#m1a5ba102e1" x="42.390456" y="246.737761" style="stroke: #000000; stroke-width: 0.5"/>
      </g>
     </g>
     <g id="line2d_64">
      <defs>
       <path id="m995e9f026c" d="M 0 0 
L -3 0 
" style="stroke: #000000; stroke-width: 0.5"/>
      </defs>
      <g>
       <use xlink:href="#m995e9f026c" x="275.04" y="246.737761" style="stroke: #000000; stroke-width: 0.5"/>
      </g>
     </g>
    </g>
    <g id="ytick_8">
     <g id="line2d_65">
      <g>
       <use xlink:href="#m1a5ba102e1" x="42.390456" y="237.714854" style="stroke: #000000; stroke-width: 0.5"/>
      </g>
     </g>
     <g id="line2d_66">
      <g>
       <use xlink:href="#m995e9f026c" x="275.04" y="237.714854" style="stroke: #000000; stroke-width: 0.5"/>
      </g>
     </g>
    </g>
    <g id="ytick_9">
     <g id="line2d_67">
      <g>
       <use xlink:href="#m1a5ba102e1" x="42.390456" y="228.691946" style="stroke: #000000; stroke-width: 0.5"/>
      </g>
     </g>
     <g id="line2d_68">
      <g>
       <use xlink:href="#m995e9f026c" x="275.04" y="228.691946" style="stroke: #000000; stroke-width: 0.5"/>
      </g>
     </g>
    </g>
    <g id="ytick_10">
     <g id="line2d_69">
      <g>
       <use xlink:href="#m1a5ba102e1" x="42.390456" y="219.669038" style="stroke: #000000; stroke-width: 0.5"/>
      </g>
     </g>
     <g id="line2d_70">
      <g>
       <use xlink:href="#m995e9f026c" x="275.04" y="219.669038" style="stroke: #000000; stroke-width: 0.5"/>
      </g>
     </g>
    </g>
    <g id="ytick_11">
     <g id="line2d_71">
      <g>
       <use xlink:href="#m1a5ba102e1" x="42.390456" y="201.623223" style="stroke: #000000; stroke-width: 0.5"/>
      </g>
     </g>
     <g id="line2d_72">
      <g>
       <use xlink:href="#m995e9f026c" x="275.04" y="201.623223" style="stroke: #000000; stroke-width: 0.5"/>
      </g>
     </g>
    </g>
    <g id="ytick_12">
     <g id="line2d_73">
      <g>
       <use xlink:href="#m1a5ba102e1" x="42.390456" y="192.600315" style="stroke: #000000; stroke-width: 0.5"/>
      </g>
     </g>
     <g id="line2d_74">
      <g>
       <use xlink:href="#m995e9f026c" x="275.04" y="192.600315" style="stroke: #000000; stroke-width: 0.5"/>
      </g>
     </g>
    </g>
    <g id="ytick_13">
     <g id="line2d_75">
      <g>
       <use xlink:href="#m1a5ba102e1" x="42.390456" y="183.577407" style="stroke: #000000; stroke-width: 0.5"/>
      </g>
     </g>
     <g id="line2d_76">
      <g>
       <use xlink:href="#m995e9f026c" x="275.04" y="183.577407" style="stroke: #000000; stroke-width: 0.5"/>
      </g>
     </g>
    </g>
    <g id="ytick_14">
     <g id="line2d_77">
      <g>
       <use xlink:href="#m1a5ba102e1" x="42.390456" y="174.5545" style="stroke: #000000; stroke-width: 0.5"/>
      </g>
     </g>
     <g id="line2d_78">
      <g>
       <use xlink:href="#m995e9f026c" x="275.04" y="174.5545" style="stroke: #000000; stroke-width: 0.5"/>
      </g>
     </g>
    </g>
    <g id="ytick_15">
     <g id="line2d_79">
      <g>
       <use xlink:href="#m1a5ba102e1" x="42.390456" y="156.508684" style="stroke: #000000; stroke-width: 0.5"/>
      </g>
     </g>
     <g id="line2d_80">
      <g>
       <use xlink:href="#m995e9f026c" x="275.04" y="156.508684" style="stroke: #000000; stroke-width: 0.5"/>
      </g>
     </g>
    </g>
    <g id="ytick_16">
     <g id="line2d_81">
      <g>
       <use xlink:href="#m1a5ba102e1" x="42.390456" y="147.485777" style="stroke: #000000; stroke-width: 0.5"/>
      </g>
     </g>
     <g id="line2d_82">
      <g>
       <use xlink:href="#m995e9f026c" x="275.04" y="147.485777" style="stroke: #000000; stroke-width: 0.5"/>
      </g>
     </g>
    </g>
    <g id="ytick_17">
     <g id="line2d_83">
      <g>
       <use xlink:href="#m1a5ba102e1" x="42.390456" y="138.462869" style="stroke: #000000; stroke-width: 0.5"/>
      </g>
     </g>
     <g id="line2d_84">
      <g>
       <use xlink:href="#m995e9f026c" x="275.04" y="138.462869" style="stroke: #000000; stroke-width: 0.5"/>
      </g>
     </g>
    </g>
    <g id="ytick_18">
     <g id="line2d_85">
      <g>
       <use xlink:href="#m1a5ba102e1" x="42.390456" y="129.439961" style="stroke: #000000; stroke-width: 0.5"/>
      </g>
     </g>
     <g id="line2d_86">
      <g>
       <use xlink:href="#m995e9f026c" x="275.04" y="129.439961" style="stroke: #000000; stroke-width: 0.5"/>
      </g>
     </g>
    </g>
    <g id="ytick_19">
     <g id="line2d_87">
      <g>
       <use xlink:href="#m1a5ba102e1" x="42.390456" y="111.394146" style="stroke: #000000; stroke-width: 0.5"/>
      </g>
     </g>
     <g id="line2d_88">
      <g>
       <use xlink:href="#m995e9f026c" x="275.04" y="111.394146" style="stroke: #000000; stroke-width: 0.5"/>
      </g>
     </g>
    </g>
    <g id="ytick_20">
     <g id="line2d_89">
      <g>
       <use xlink:href="#m1a5ba102e1" x="42.390456" y="102.371238" style="stroke: #000000; stroke-width: 0.5"/>
      </g>
     </g>
     <g id="line2d_90">
      <g>
       <use xlink:href="#m995e9f026c" x="275.04" y="102.371238" style="stroke: #000000; stroke-width: 0.5"/>
      </g>
     </g>
    </g>
    <g id="ytick_21">
     <g id="line2d_91">
      <g>
       <use xlink:href="#m1a5ba102e1" x="42.390456" y="93.34833" style="stroke: #000000; stroke-width: 0.5"/>
      </g>
     </g>
     <g id="line2d_92">
      <g>
       <use xlink:href="#m995e9f026c" x="275.04" y="93.34833" style="stroke: #000000; stroke-width: 0.5"/>
      </g>
     </g>
    </g>
    <g id="ytick_22">
     <g id="line2d_93">
      <g>
       <use xlink:href="#m1a5ba102e1" x="42.390456" y="84.325423" style="stroke: #000000; stroke-width: 0.5"/>
      </g>
     </g>
     <g id="line2d_94">
      <g>
       <use xlink:href="#m995e9f026c" x="275.04" y="84.325423" style="stroke: #000000; stroke-width: 0.5"/>
      </g>
     </g>
    </g>
    <g id="ytick_23">
     <g id="line2d_95">
      <g>
       <use xlink:href="#m1a5ba102e1" x="42.390456" y="66.279607" style="stroke: #000000; stroke-width: 0.5"/>
      </g>
     </g>
     <g id="line2d_96">
      <g>
       <use xlink:href="#m995e9f026c" x="275.04" y="66.279607" style="stroke: #000000; stroke-width: 0.5"/>
      </g>
     </g>
    </g>
    <g id="ytick_24">
     <g id="line2d_97">
      <g>
       <use xlink:href="#m1a5ba102e1" x="42.390456" y="57.2567" style="stroke: #000000; stroke-width: 0.5"/>
      </g>
     </g>
     <g id="line2d_98">
      <g>
       <use xlink:href="#m995e9f026c" x="275.04" y="57.2567" style="stroke: #000000; stroke-width: 0.5"/>
      </g>
     </g>
    </g>
    <g id="ytick_25">
     <g id="line2d_99">
      <g>
       <use xlink:href="#m1a5ba102e1" x="42.390456" y="48.233792" style="stroke: #000000; stroke-width: 0.5"/>
      </g>
     </g>
     <g id="line2d_100">
      <g>
       <use xlink:href="#m995e9f026c" x="275.04" y="48.233792" style="stroke: #000000; stroke-width: 0.5"/>
      </g>
     </g>
    </g>
    <g id="ytick_26">
     <g id="line2d_101">
      <g>
       <use xlink:href="#m1a5ba102e1" x="42.390456" y="39.210884" style="stroke: #000000; stroke-width: 0.5"/>
      </g>
     </g>
     <g id="line2d_102">
      <g>
       <use xlink:href="#m995e9f026c" x="275.04" y="39.210884" style="stroke: #000000; stroke-width: 0.5"/>
      </g>
     </g>
    </g>
    <g id="text_12">
     <!-- value -->
     <g transform="translate(19.875732 155.798319) rotate(-90) scale(0.09996 -0.09996)">
      <defs>
       <path id="CMR17-76" d="M 2502 2163 
C 2560 2304 2662 2560 3034 2560 
L 3034 2726 
C 2912 2726 2752 2726 2630 2726 
C 2496 2726 2285 2726 2157 2732 
L 2157 2566 
C 2317 2553 2406 2477 2406 2311 
C 2406 2253 2406 2240 2368 2151 
L 1664 377 
L 902 2286 
C 864 2369 864 2381 864 2407 
C 864 2560 1075 2560 1171 2560 
L 1171 2732 
C 1018 2726 736 2726 576 2726 
C 403 2726 205 2726 64 2732 
L 64 2560 
C 307 2560 442 2560 518 2362 
L 1446 44 
C 1485 -51 1491 -64 1549 -64 
C 1606 -64 1613 -51 1651 44 
L 2502 2163 
z
" transform="scale(0.015625)"/>
       <path id="CMR17-61" d="M 2304 1653 
C 2304 2072 2304 2294 2035 2543 
C 1798 2752 1523 2816 1306 2816 
C 800 2816 435 2407 435 1971 
C 435 1728 627 1728 666 1728 
C 749 1728 896 1778 896 1954 
C 896 2112 774 2181 666 2181 
C 640 2181 608 2174 589 2168 
C 723 2592 1069 2714 1293 2714 
C 1613 2714 1965 2429 1965 1885 
L 1965 1600 
C 1587 1600 1133 1549 774 1357 
C 371 1133 256 813 256 570 
C 256 77 832 -64 1171 -64 
C 1523 -64 1850 139 1990 511 
C 2003 233 2182 -18 2464 -18 
C 2598 -18 2938 70 2938 567 
L 2938 920 
L 2822 920 
L 2822 562 
C 2822 178 2650 128 2566 128 
C 2304 128 2304 458 2304 738 
L 2304 1653 
z
M 1965 870 
C 1965 317 1568 38 1216 38 
C 896 38 646 275 646 570 
C 646 761 730 1100 1101 1305 
C 1408 1478 1760 1504 1965 1504 
L 1965 870 
z
" transform="scale(0.015625)"/>
      </defs>
      <use xlink:href="#CMR17-76" transform="scale(0.996264)"/>
      <use xlink:href="#CMR17-61" transform="translate(43.088099 0) scale(0.996264)"/>
      <use xlink:href="#CMR17-6c" transform="translate(88.778576 0) scale(0.996264)"/>
      <use xlink:href="#CMR17-75" transform="translate(113.649635 0) scale(0.996264)"/>
      <use xlink:href="#CMR17-65" transform="translate(164.545005 0) scale(0.996264)"/>
     </g>
    </g>
   </g>
   <g id="line2d_103">
    <path d="M 50.145441 224.651093 
L 50.145441 231.514988 
" clip-path="url(#p69792365fe)" style="fill: none; stroke: #292929; stroke-width: 1.25; stroke-linecap: square"/>
   </g>
   <g id="line2d_104">
    <path d="M 50.145441 212.491174 
L 50.145441 195.914542 
" clip-path="url(#p69792365fe)" style="fill: none; stroke: #292929; stroke-width: 1.25; stroke-linecap: square"/>
   </g>
   <g id="line2d_105">
    <path d="M 48.625464 231.514988 
L 51.665418 231.514988 
" clip-path="url(#p69792365fe)" style="fill: none; stroke: #292929; stroke-width: 1.25; stroke-linecap: square"/>
   </g>
   <g id="line2d_106">
    <path d="M 48.625464 195.914542 
L 51.665418 195.914542 
" clip-path="url(#p69792365fe)" style="fill: none; stroke: #292929; stroke-width: 1.25; stroke-linecap: square"/>
   </g>
   <g id="line2d_107">
    <path d="M 56.349429 212.239426 
L 56.349429 220.237481 
" clip-path="url(#p69792365fe)" style="fill: none; stroke: #292929; stroke-width: 1.25; stroke-linecap: square"/>
   </g>
   <g id="line2d_108">
    <path d="M 56.349429 205.659846 
L 56.349429 196.036539 
" clip-path="url(#p69792365fe)" style="fill: none; stroke: #292929; stroke-width: 1.25; stroke-linecap: square"/>
   </g>
   <g id="line2d_109">
    <path d="M 54.829452 220.237481 
L 57.869406 220.237481 
" clip-path="url(#p69792365fe)" style="fill: none; stroke: #292929; stroke-width: 1.25; stroke-linecap: square"/>
   </g>
   <g id="line2d_110">
    <path d="M 54.829452 196.036539 
L 57.869406 196.036539 
" clip-path="url(#p69792365fe)" style="fill: none; stroke: #292929; stroke-width: 1.25; stroke-linecap: square"/>
   </g>
   <g id="line2d_111">
    <path d="M 62.553417 202.204636 
L 62.553417 217.706556 
" clip-path="url(#p69792365fe)" style="fill: none; stroke: #292929; stroke-width: 1.25; stroke-linecap: square"/>
   </g>
   <g id="line2d_112">
    <path d="M 62.553417 191.243495 
L 62.553417 175.727102 
" clip-path="url(#p69792365fe)" style="fill: none; stroke: #292929; stroke-width: 1.25; stroke-linecap: square"/>
   </g>
   <g id="line2d_113">
    <path d="M 61.03344 217.706556 
L 64.073394 217.706556 
" clip-path="url(#p69792365fe)" style="fill: none; stroke: #292929; stroke-width: 1.25; stroke-linecap: square"/>
   </g>
   <g id="line2d_114">
    <path d="M 61.03344 175.727102 
L 64.073394 175.727102 
" clip-path="url(#p69792365fe)" style="fill: none; stroke: #292929; stroke-width: 1.25; stroke-linecap: square"/>
   </g>
   <g id="line2d_115">
    <path d="M 68.757404 230.444928 
L 68.757404 232.346223 
" clip-path="url(#p69792365fe)" style="fill: none; stroke: #292929; stroke-width: 1.25; stroke-linecap: square"/>
   </g>
   <g id="line2d_116">
    <path d="M 68.757404 227.746514 
L 68.757404 225.576411 
" clip-path="url(#p69792365fe)" style="fill: none; stroke: #292929; stroke-width: 1.25; stroke-linecap: square"/>
   </g>
   <g id="line2d_117">
    <path d="M 67.237427 232.346223 
L 70.277381 232.346223 
" clip-path="url(#p69792365fe)" style="fill: none; stroke: #292929; stroke-width: 1.25; stroke-linecap: square"/>
   </g>
   <g id="line2d_118">
    <path d="M 67.237427 225.576411 
L 70.277381 225.576411 
" clip-path="url(#p69792365fe)" style="fill: none; stroke: #292929; stroke-width: 1.25; stroke-linecap: square"/>
   </g>
   <g id="line2d_119">
    <path d="M 74.961392 227.358811 
L 74.961392 230.596907 
" clip-path="url(#p69792365fe)" style="fill: none; stroke: #292929; stroke-width: 1.25; stroke-linecap: square"/>
   </g>
   <g id="line2d_120">
    <path d="M 74.961392 218.930664 
L 74.961392 209.638196 
" clip-path="url(#p69792365fe)" style="fill: none; stroke: #292929; stroke-width: 1.25; stroke-linecap: square"/>
   </g>
   <g id="line2d_121">
    <path d="M 73.441415 230.596907 
L 76.481369 230.596907 
" clip-path="url(#p69792365fe)" style="fill: none; stroke: #292929; stroke-width: 1.25; stroke-linecap: square"/>
   </g>
   <g id="line2d_122">
    <path d="M 73.441415 209.638196 
L 76.481369 209.638196 
" clip-path="url(#p69792365fe)" style="fill: none; stroke: #292929; stroke-width: 1.25; stroke-linecap: square"/>
   </g>
   <g id="line2d_123">
    <path d="M 81.16538 214.902687 
L 81.16538 223.103382 
" clip-path="url(#p69792365fe)" style="fill: none; stroke: #292929; stroke-width: 1.25; stroke-linecap: square"/>
   </g>
   <g id="line2d_124">
    <path d="M 81.16538 208.525747 
L 81.16538 204.084221 
" clip-path="url(#p69792365fe)" style="fill: none; stroke: #292929; stroke-width: 1.25; stroke-linecap: square"/>
   </g>
   <g id="line2d_125">
    <path d="M 79.645403 223.103382 
L 82.685357 223.103382 
" clip-path="url(#p69792365fe)" style="fill: none; stroke: #292929; stroke-width: 1.25; stroke-linecap: square"/>
   </g>
   <g id="line2d_126">
    <path d="M 79.645403 204.084221 
L 82.685357 204.084221 
" clip-path="url(#p69792365fe)" style="fill: none; stroke: #292929; stroke-width: 1.25; stroke-linecap: square"/>
   </g>
   <g id="line2d_127">
    <path d="M 96.67535 215.166325 
L 96.67535 222.29696 
" clip-path="url(#p69792365fe)" style="fill: none; stroke: #292929; stroke-width: 1.25; stroke-linecap: square"/>
   </g>
   <g id="line2d_128">
    <path d="M 96.67535 197.079719 
L 96.67535 179.246412 
" clip-path="url(#p69792365fe)" style="fill: none; stroke: #292929; stroke-width: 1.25; stroke-linecap: square"/>
   </g>
   <g id="line2d_129">
    <path d="M 95.155373 222.29696 
L 98.195327 222.29696 
" clip-path="url(#p69792365fe)" style="fill: none; stroke: #292929; stroke-width: 1.25; stroke-linecap: square"/>
   </g>
   <g id="line2d_130">
    <path d="M 95.155373 179.246412 
L 98.195327 179.246412 
" clip-path="url(#p69792365fe)" style="fill: none; stroke: #292929; stroke-width: 1.25; stroke-linecap: square"/>
   </g>
   <g id="line2d_131">
    <path d="M 102.879338 191.541251 
L 102.879338 202.552018 
" clip-path="url(#p69792365fe)" style="fill: none; stroke: #292929; stroke-width: 1.25; stroke-linecap: square"/>
   </g>
   <g id="line2d_132">
    <path d="M 102.879338 179.788162 
L 102.879338 164.259362 
" clip-path="url(#p69792365fe)" style="fill: none; stroke: #292929; stroke-width: 1.25; stroke-linecap: square"/>
   </g>
   <g id="line2d_133">
    <path d="M 101.35936 202.552018 
L 104.399315 202.552018 
" clip-path="url(#p69792365fe)" style="fill: none; stroke: #292929; stroke-width: 1.25; stroke-linecap: square"/>
   </g>
   <g id="line2d_134">
    <path d="M 101.35936 164.259362 
L 104.399315 164.259362 
" clip-path="url(#p69792365fe)" style="fill: none; stroke: #292929; stroke-width: 1.25; stroke-linecap: square"/>
   </g>
   <g id="line2d_135">
    <path d="M 109.083325 164.616049 
L 109.083325 186.748208 
" clip-path="url(#p69792365fe)" style="fill: none; stroke: #292929; stroke-width: 1.25; stroke-linecap: square"/>
   </g>
   <g id="line2d_136">
    <path d="M 109.083325 144.595063 
L 109.083325 116.510886 
" clip-path="url(#p69792365fe)" style="fill: none; stroke: #292929; stroke-width: 1.25; stroke-linecap: square"/>
   </g>
   <g id="line2d_137">
    <path d="M 107.563348 186.748208 
L 110.603302 186.748208 
" clip-path="url(#p69792365fe)" style="fill: none; stroke: #292929; stroke-width: 1.25; stroke-linecap: square"/>
   </g>
   <g id="line2d_138">
    <path d="M 107.563348 116.510886 
L 110.603302 116.510886 
" clip-path="url(#p69792365fe)" style="fill: none; stroke: #292929; stroke-width: 1.25; stroke-linecap: square"/>
   </g>
   <g id="line2d_139">
    <path d="M 115.287313 220.797841 
L 115.287313 223.727843 
" clip-path="url(#p69792365fe)" style="fill: none; stroke: #292929; stroke-width: 1.25; stroke-linecap: square"/>
   </g>
   <g id="line2d_140">
    <path d="M 115.287313 218.161461 
L 115.287313 216.337705 
" clip-path="url(#p69792365fe)" style="fill: none; stroke: #292929; stroke-width: 1.25; stroke-linecap: square"/>
   </g>
   <g id="line2d_141">
    <path d="M 113.767336 223.727843 
L 116.80729 223.727843 
" clip-path="url(#p69792365fe)" style="fill: none; stroke: #292929; stroke-width: 1.25; stroke-linecap: square"/>
   </g>
   <g id="line2d_142">
    <path d="M 113.767336 216.337705 
L 116.80729 216.337705 
" clip-path="url(#p69792365fe)" style="fill: none; stroke: #292929; stroke-width: 1.25; stroke-linecap: square"/>
   </g>
   <g id="line2d_143">
    <path d="M 121.491301 212.719143 
L 121.491301 220.510424 
" clip-path="url(#p69792365fe)" style="fill: none; stroke: #292929; stroke-width: 1.25; stroke-linecap: square"/>
   </g>
   <g id="line2d_144">
    <path d="M 121.491301 201.038426 
L 121.491301 185.139498 
" clip-path="url(#p69792365fe)" style="fill: none; stroke: #292929; stroke-width: 1.25; stroke-linecap: square"/>
   </g>
   <g id="line2d_145">
    <path d="M 119.971324 220.510424 
L 123.011278 220.510424 
" clip-path="url(#p69792365fe)" style="fill: none; stroke: #292929; stroke-width: 1.25; stroke-linecap: square"/>
   </g>
   <g id="line2d_146">
    <path d="M 119.971324 185.139498 
L 123.011278 185.139498 
" clip-path="url(#p69792365fe)" style="fill: none; stroke: #292929; stroke-width: 1.25; stroke-linecap: square"/>
   </g>
   <g id="line2d_147">
    <path d="M 127.695289 205.306261 
L 127.695289 232.693605 
" clip-path="url(#p69792365fe)" style="fill: none; stroke: #292929; stroke-width: 1.25; stroke-linecap: square"/>
   </g>
   <g id="line2d_148">
    <path d="M 127.695289 175.644392 
L 127.695289 162.059276 
" clip-path="url(#p69792365fe)" style="fill: none; stroke: #292929; stroke-width: 1.25; stroke-linecap: square"/>
   </g>
   <g id="line2d_149">
    <path d="M 126.175312 232.693605 
L 129.215266 232.693605 
" clip-path="url(#p69792365fe)" style="fill: none; stroke: #292929; stroke-width: 1.25; stroke-linecap: square"/>
   </g>
   <g id="line2d_150">
    <path d="M 126.175312 162.059276 
L 129.215266 162.059276 
" clip-path="url(#p69792365fe)" style="fill: none; stroke: #292929; stroke-width: 1.25; stroke-linecap: square"/>
   </g>
   <g id="line2d_151">
    <path d="M 143.205258 203.109277 
L 143.205258 213.773696 
" clip-path="url(#p69792365fe)" style="fill: none; stroke: #292929; stroke-width: 1.25; stroke-linecap: square"/>
   </g>
   <g id="line2d_152">
    <path d="M 143.205258 184.396659 
L 143.205258 163.384704 
" clip-path="url(#p69792365fe)" style="fill: none; stroke: #292929; stroke-width: 1.25; stroke-linecap: square"/>
   </g>
   <g id="line2d_153">
    <path d="M 141.685281 213.773696 
L 144.725235 213.773696 
" clip-path="url(#p69792365fe)" style="fill: none; stroke: #292929; stroke-width: 1.25; stroke-linecap: square"/>
   </g>
   <g id="line2d_154">
    <path d="M 141.685281 163.384704 
L 144.725235 163.384704 
" clip-path="url(#p69792365fe)" style="fill: none; stroke: #292929; stroke-width: 1.25; stroke-linecap: square"/>
   </g>
   <g id="line2d_155">
    <path d="M 149.409246 175.37972 
L 149.409246 192.881153 
" clip-path="url(#p69792365fe)" style="fill: none; stroke: #292929; stroke-width: 1.25; stroke-linecap: square"/>
   </g>
   <g id="line2d_156">
    <path d="M 149.409246 154.371383 
L 149.409246 132.213377 
" clip-path="url(#p69792365fe)" style="fill: none; stroke: #292929; stroke-width: 1.25; stroke-linecap: square"/>
   </g>
   <g id="line2d_157">
    <path d="M 147.889269 192.881153 
L 150.929223 192.881153 
" clip-path="url(#p69792365fe)" style="fill: none; stroke: #292929; stroke-width: 1.25; stroke-linecap: square"/>
   </g>
   <g id="line2d_158">
    <path d="M 147.889269 132.213377 
L 150.929223 132.213377 
" clip-path="url(#p69792365fe)" style="fill: none; stroke: #292929; stroke-width: 1.25; stroke-linecap: square"/>
   </g>
   <g id="line2d_159">
    <path d="M 155.613234 137.892452 
L 155.613234 165.586857 
" clip-path="url(#p69792365fe)" style="fill: none; stroke: #292929; stroke-width: 1.25; stroke-linecap: square"/>
   </g>
   <g id="line2d_160">
    <path d="M 155.613234 109.866173 
L 155.613234 90.304227 
" clip-path="url(#p69792365fe)" style="fill: none; stroke: #292929; stroke-width: 1.25; stroke-linecap: square"/>
   </g>
   <g id="line2d_161">
    <path d="M 154.093257 165.586857 
L 157.133211 165.586857 
" clip-path="url(#p69792365fe)" style="fill: none; stroke: #292929; stroke-width: 1.25; stroke-linecap: square"/>
   </g>
   <g id="line2d_162">
    <path d="M 154.093257 90.304227 
L 157.133211 90.304227 
" clip-path="url(#p69792365fe)" style="fill: none; stroke: #292929; stroke-width: 1.25; stroke-linecap: square"/>
   </g>
   <g id="line2d_163">
    <path d="M 161.817222 224.793768 
L 161.817222 229.786349 
" clip-path="url(#p69792365fe)" style="fill: none; stroke: #292929; stroke-width: 1.25; stroke-linecap: square"/>
   </g>
   <g id="line2d_164">
    <path d="M 161.817222 220.670675 
L 161.817222 216.292215 
" clip-path="url(#p69792365fe)" style="fill: none; stroke: #292929; stroke-width: 1.25; stroke-linecap: square"/>
   </g>
   <g id="line2d_165">
    <path d="M 160.297245 229.786349 
L 163.337199 229.786349 
" clip-path="url(#p69792365fe)" style="fill: none; stroke: #292929; stroke-width: 1.25; stroke-linecap: square"/>
   </g>
   <g id="line2d_166">
    <path d="M 160.297245 216.292215 
L 163.337199 216.292215 
" clip-path="url(#p69792365fe)" style="fill: none; stroke: #292929; stroke-width: 1.25; stroke-linecap: square"/>
   </g>
   <g id="line2d_167">
    <path d="M 168.02121 209.7085 
L 168.02121 220.423579 
" clip-path="url(#p69792365fe)" style="fill: none; stroke: #292929; stroke-width: 1.25; stroke-linecap: square"/>
   </g>
   <g id="line2d_168">
    <path d="M 168.02121 192.800511 
L 168.02121 171.608144 
" clip-path="url(#p69792365fe)" style="fill: none; stroke: #292929; stroke-width: 1.25; stroke-linecap: square"/>
   </g>
   <g id="line2d_169">
    <path d="M 166.501233 220.423579 
L 169.541187 220.423579 
" clip-path="url(#p69792365fe)" style="fill: none; stroke: #292929; stroke-width: 1.25; stroke-linecap: square"/>
   </g>
   <g id="line2d_170">
    <path d="M 166.501233 171.608144 
L 169.541187 171.608144 
" clip-path="url(#p69792365fe)" style="fill: none; stroke: #292929; stroke-width: 1.25; stroke-linecap: square"/>
   </g>
   <g id="line2d_171">
    <path d="M 174.225198 221.961985 
L 174.225198 246.948672 
" clip-path="url(#p69792365fe)" style="fill: none; stroke: #292929; stroke-width: 1.25; stroke-linecap: square"/>
   </g>
   <g id="line2d_172">
    <path d="M 174.225198 179.473864 
L 174.225198 143.110418 
" clip-path="url(#p69792365fe)" style="fill: none; stroke: #292929; stroke-width: 1.25; stroke-linecap: square"/>
   </g>
   <g id="line2d_173">
    <path d="M 172.705221 246.948672 
L 175.745175 246.948672 
" clip-path="url(#p69792365fe)" style="fill: none; stroke: #292929; stroke-width: 1.25; stroke-linecap: square"/>
   </g>
   <g id="line2d_174">
    <path d="M 172.705221 143.110418 
L 175.745175 143.110418 
" clip-path="url(#p69792365fe)" style="fill: none; stroke: #292929; stroke-width: 1.25; stroke-linecap: square"/>
   </g>
   <g id="line2d_175">
    <path d="M 189.735167 169.08549 
L 189.735167 184.432328 
" clip-path="url(#p69792365fe)" style="fill: none; stroke: #292929; stroke-width: 1.25; stroke-linecap: square"/>
   </g>
   <g id="line2d_176">
    <path d="M 189.735167 142.121517 
L 189.735167 113.62224 
" clip-path="url(#p69792365fe)" style="fill: none; stroke: #292929; stroke-width: 1.25; stroke-linecap: square"/>
   </g>
   <g id="line2d_177">
    <path d="M 188.21519 184.432328 
L 191.255144 184.432328 
" clip-path="url(#p69792365fe)" style="fill: none; stroke: #292929; stroke-width: 1.25; stroke-linecap: square"/>
   </g>
   <g id="line2d_178">
    <path d="M 188.21519 113.62224 
L 191.255144 113.62224 
" clip-path="url(#p69792365fe)" style="fill: none; stroke: #292929; stroke-width: 1.25; stroke-linecap: square"/>
   </g>
   <g id="line2d_179">
    <path d="M 195.939155 141.481032 
L 195.939155 157.814186 
" clip-path="url(#p69792365fe)" style="fill: none; stroke: #292929; stroke-width: 1.25; stroke-linecap: square"/>
   </g>
   <g id="line2d_180">
    <path d="M 195.939155 115.745819 
L 195.939155 90.043691 
" clip-path="url(#p69792365fe)" style="fill: none; stroke: #292929; stroke-width: 1.25; stroke-linecap: square"/>
   </g>
   <g id="line2d_181">
    <path d="M 194.419178 157.814186 
L 197.459132 157.814186 
" clip-path="url(#p69792365fe)" style="fill: none; stroke: #292929; stroke-width: 1.25; stroke-linecap: square"/>
   </g>
   <g id="line2d_182">
    <path d="M 194.419178 90.043691 
L 197.459132 90.043691 
" clip-path="url(#p69792365fe)" style="fill: none; stroke: #292929; stroke-width: 1.25; stroke-linecap: square"/>
   </g>
   <g id="line2d_183">
    <path d="M 202.143143 114.934227 
L 202.143143 153.085243 
" clip-path="url(#p69792365fe)" style="fill: none; stroke: #292929; stroke-width: 1.25; stroke-linecap: square"/>
   </g>
   <g id="line2d_184">
    <path d="M 202.143143 87.736082 
L 202.143143 60.371483 
" clip-path="url(#p69792365fe)" style="fill: none; stroke: #292929; stroke-width: 1.25; stroke-linecap: square"/>
   </g>
   <g id="line2d_185">
    <path d="M 200.623166 153.085243 
L 203.66312 153.085243 
" clip-path="url(#p69792365fe)" style="fill: none; stroke: #292929; stroke-width: 1.25; stroke-linecap: square"/>
   </g>
   <g id="line2d_186">
    <path d="M 200.623166 60.371483 
L 203.66312 60.371483 
" clip-path="url(#p69792365fe)" style="fill: none; stroke: #292929; stroke-width: 1.25; stroke-linecap: square"/>
   </g>
   <g id="line2d_187">
    <path d="M 208.347131 160.411797 
L 208.347131 174.01914 
" clip-path="url(#p69792365fe)" style="fill: none; stroke: #292929; stroke-width: 1.25; stroke-linecap: square"/>
   </g>
   <g id="line2d_188">
    <path d="M 208.347131 144.077091 
L 208.347131 128.115098 
" clip-path="url(#p69792365fe)" style="fill: none; stroke: #292929; stroke-width: 1.25; stroke-linecap: square"/>
   </g>
   <g id="line2d_189">
    <path d="M 206.827154 174.01914 
L 209.867108 174.01914 
" clip-path="url(#p69792365fe)" style="fill: none; stroke: #292929; stroke-width: 1.25; stroke-linecap: square"/>
   </g>
   <g id="line2d_190">
    <path d="M 206.827154 128.115098 
L 209.867108 128.115098 
" clip-path="url(#p69792365fe)" style="fill: none; stroke: #292929; stroke-width: 1.25; stroke-linecap: square"/>
   </g>
   <g id="line2d_191">
    <path d="M 214.551119 145.095458 
L 214.551119 161.424477 
" clip-path="url(#p69792365fe)" style="fill: none; stroke: #292929; stroke-width: 1.25; stroke-linecap: square"/>
   </g>
   <g id="line2d_192">
    <path d="M 214.551119 130.104273 
L 214.551119 108.641031 
" clip-path="url(#p69792365fe)" style="fill: none; stroke: #292929; stroke-width: 1.25; stroke-linecap: square"/>
   </g>
   <g id="line2d_193">
    <path d="M 213.031142 161.424477 
L 216.071096 161.424477 
" clip-path="url(#p69792365fe)" style="fill: none; stroke: #292929; stroke-width: 1.25; stroke-linecap: square"/>
   </g>
   <g id="line2d_194">
    <path d="M 213.031142 108.641031 
L 216.071096 108.641031 
" clip-path="url(#p69792365fe)" style="fill: none; stroke: #292929; stroke-width: 1.25; stroke-linecap: square"/>
   </g>
   <g id="line2d_195">
    <path d="M 220.755106 235.964785 
L 220.755106 251.923677 
" clip-path="url(#p69792365fe)" style="fill: none; stroke: #292929; stroke-width: 1.25; stroke-linecap: square"/>
   </g>
   <g id="line2d_196">
    <path d="M 220.755106 222.880065 
L 220.755106 207.140355 
" clip-path="url(#p69792365fe)" style="fill: none; stroke: #292929; stroke-width: 1.25; stroke-linecap: square"/>
   </g>
   <g id="line2d_197">
    <path d="M 219.235129 251.923677 
L 222.275083 251.923677 
" clip-path="url(#p69792365fe)" style="fill: none; stroke: #292929; stroke-width: 1.25; stroke-linecap: square"/>
   </g>
   <g id="line2d_198">
    <path d="M 219.235129 207.140355 
L 222.275083 207.140355 
" clip-path="url(#p69792365fe)" style="fill: none; stroke: #292929; stroke-width: 1.25; stroke-linecap: square"/>
   </g>
   <g id="line2d_199">
    <path d="M 236.265076 170.475018 
L 236.265076 196.193688 
" clip-path="url(#p69792365fe)" style="fill: none; stroke: #292929; stroke-width: 1.25; stroke-linecap: square"/>
   </g>
   <g id="line2d_200">
    <path d="M 236.265076 141.11504 
L 236.265076 105.787537 
" clip-path="url(#p69792365fe)" style="fill: none; stroke: #292929; stroke-width: 1.25; stroke-linecap: square"/>
   </g>
   <g id="line2d_201">
    <path d="M 234.745099 196.193688 
L 237.785053 196.193688 
" clip-path="url(#p69792365fe)" style="fill: none; stroke: #292929; stroke-width: 1.25; stroke-linecap: square"/>
   </g>
   <g id="line2d_202">
    <path d="M 234.745099 105.787537 
L 237.785053 105.787537 
" clip-path="url(#p69792365fe)" style="fill: none; stroke: #292929; stroke-width: 1.25; stroke-linecap: square"/>
   </g>
   <g id="line2d_203">
    <path d="M 242.469064 143.106283 
L 242.469064 171.448928 
" clip-path="url(#p69792365fe)" style="fill: none; stroke: #292929; stroke-width: 1.25; stroke-linecap: square"/>
   </g>
   <g id="line2d_204">
    <path d="M 242.469064 100.545791 
L 242.469064 63.022338 
" clip-path="url(#p69792365fe)" style="fill: none; stroke: #292929; stroke-width: 1.25; stroke-linecap: square"/>
   </g>
   <g id="line2d_205">
    <path d="M 240.949087 171.448928 
L 243.989041 171.448928 
" clip-path="url(#p69792365fe)" style="fill: none; stroke: #292929; stroke-width: 1.25; stroke-linecap: square"/>
   </g>
   <g id="line2d_206">
    <path d="M 240.949087 63.022338 
L 243.989041 63.022338 
" clip-path="url(#p69792365fe)" style="fill: none; stroke: #292929; stroke-width: 1.25; stroke-linecap: square"/>
   </g>
   <g id="line2d_207">
    <path d="M 248.673052 104.912878 
L 248.673052 160.003933 
" clip-path="url(#p69792365fe)" style="fill: none; stroke: #292929; stroke-width: 1.25; stroke-linecap: square"/>
   </g>
   <g id="line2d_208">
    <path d="M 248.673052 59.691193 
L 248.673052 36.63992 
" clip-path="url(#p69792365fe)" style="fill: none; stroke: #292929; stroke-width: 1.25; stroke-linecap: square"/>
   </g>
   <g id="line2d_209">
    <path d="M 247.153075 160.003933 
L 250.193029 160.003933 
" clip-path="url(#p69792365fe)" style="fill: none; stroke: #292929; stroke-width: 1.25; stroke-linecap: square"/>
   </g>
   <g id="line2d_210">
    <path d="M 247.153075 36.63992 
L 250.193029 36.63992 
" clip-path="url(#p69792365fe)" style="fill: none; stroke: #292929; stroke-width: 1.25; stroke-linecap: square"/>
   </g>
   <g id="line2d_211">
    <path d="M 254.87704 234.861641 
L 254.87704 241.402967 
" clip-path="url(#p69792365fe)" style="fill: none; stroke: #292929; stroke-width: 1.25; stroke-linecap: square"/>
   </g>
   <g id="line2d_212">
    <path d="M 254.87704 229.976582 
L 254.87704 222.999995 
" clip-path="url(#p69792365fe)" style="fill: none; stroke: #292929; stroke-width: 1.25; stroke-linecap: square"/>
   </g>
   <g id="line2d_213">
    <path d="M 253.357063 241.402967 
L 256.397017 241.402967 
" clip-path="url(#p69792365fe)" style="fill: none; stroke: #292929; stroke-width: 1.25; stroke-linecap: square"/>
   </g>
   <g id="line2d_214">
    <path d="M 253.357063 222.999995 
L 256.397017 222.999995 
" clip-path="url(#p69792365fe)" style="fill: none; stroke: #292929; stroke-width: 1.25; stroke-linecap: square"/>
   </g>
   <g id="line2d_215">
    <path d="M 261.081027 198.964473 
L 261.081027 214.394021 
" clip-path="url(#p69792365fe)" style="fill: none; stroke: #292929; stroke-width: 1.25; stroke-linecap: square"/>
   </g>
   <g id="line2d_216">
    <path d="M 261.081027 172.168505 
L 261.081027 140.80281 
" clip-path="url(#p69792365fe)" style="fill: none; stroke: #292929; stroke-width: 1.25; stroke-linecap: square"/>
   </g>
   <g id="line2d_217">
    <path d="M 259.56105 214.394021 
L 262.601004 214.394021 
" clip-path="url(#p69792365fe)" style="fill: none; stroke: #292929; stroke-width: 1.25; stroke-linecap: square"/>
   </g>
   <g id="line2d_218">
    <path d="M 259.56105 140.80281 
L 262.601004 140.80281 
" clip-path="url(#p69792365fe)" style="fill: none; stroke: #292929; stroke-width: 1.25; stroke-linecap: square"/>
   </g>
   <g id="line2d_219">
    <path d="M 267.285015 246.237366 
L 267.285015 250.509337 
" clip-path="url(#p69792365fe)" style="fill: none; stroke: #292929; stroke-width: 1.25; stroke-linecap: square"/>
   </g>
   <g id="line2d_220">
    <path d="M 267.285015 242.912424 
L 267.285015 239.922458 
" clip-path="url(#p69792365fe)" style="fill: none; stroke: #292929; stroke-width: 1.25; stroke-linecap: square"/>
   </g>
   <g id="line2d_221">
    <path d="M 265.765038 250.509337 
L 268.804992 250.509337 
" clip-path="url(#p69792365fe)" style="fill: none; stroke: #292929; stroke-width: 1.25; stroke-linecap: square"/>
   </g>
   <g id="line2d_222">
    <path d="M 265.765038 239.922458 
L 268.804992 239.922458 
" clip-path="url(#p69792365fe)" style="fill: none; stroke: #292929; stroke-width: 1.25; stroke-linecap: square"/>
   </g>
   <g id="line2d_223">
    <path d="M 47.105487 219.499295 
L 53.185395 219.499295 
" clip-path="url(#p69792365fe)" style="fill: none; stroke: #292929; stroke-width: 1.25; stroke-linecap: square"/>
   </g>
   <g id="line2d_224">
    <path d="M 53.309475 209.803616 
L 59.389383 209.803616 
" clip-path="url(#p69792365fe)" style="fill: none; stroke: #292929; stroke-width: 1.25; stroke-linecap: square"/>
   </g>
   <g id="line2d_225">
    <path d="M 59.513463 197.016652 
L 65.593371 197.016652 
" clip-path="url(#p69792365fe)" style="fill: none; stroke: #292929; stroke-width: 1.25; stroke-linecap: square"/>
   </g>
   <g id="line2d_226">
    <path d="M 65.71745 229.438967 
L 71.797358 229.438967 
" clip-path="url(#p69792365fe)" style="fill: none; stroke: #292929; stroke-width: 1.25; stroke-linecap: square"/>
   </g>
   <g id="line2d_227">
    <path d="M 71.921438 221.949578 
L 78.001346 221.949578 
" clip-path="url(#p69792365fe)" style="fill: none; stroke: #292929; stroke-width: 1.25; stroke-linecap: square"/>
   </g>
   <g id="line2d_228">
    <path d="M 78.125426 210.423941 
L 84.205334 210.423941 
" clip-path="url(#p69792365fe)" style="fill: none; stroke: #292929; stroke-width: 1.25; stroke-linecap: square"/>
   </g>
   <g id="line2d_229">
    <path d="M 93.635396 205.861452 
L 99.715304 205.861452 
" clip-path="url(#p69792365fe)" style="fill: none; stroke: #292929; stroke-width: 1.25; stroke-linecap: square"/>
   </g>
   <g id="line2d_230">
    <path d="M 99.839383 186.845392 
L 105.919292 186.845392 
" clip-path="url(#p69792365fe)" style="fill: none; stroke: #292929; stroke-width: 1.25; stroke-linecap: square"/>
   </g>
   <g id="line2d_231">
    <path d="M 106.043371 155.231567 
L 112.123279 155.231567 
" clip-path="url(#p69792365fe)" style="fill: none; stroke: #292929; stroke-width: 1.25; stroke-linecap: square"/>
   </g>
   <g id="line2d_232">
    <path d="M 112.247359 219.42072 
L 118.327267 219.42072 
" clip-path="url(#p69792365fe)" style="fill: none; stroke: #292929; stroke-width: 1.25; stroke-linecap: square"/>
   </g>
   <g id="line2d_233">
    <path d="M 118.451347 206.838463 
L 124.531255 206.838463 
" clip-path="url(#p69792365fe)" style="fill: none; stroke: #292929; stroke-width: 1.25; stroke-linecap: square"/>
   </g>
   <g id="line2d_234">
    <path d="M 124.655335 186.541433 
L 130.735243 186.541433 
" clip-path="url(#p69792365fe)" style="fill: none; stroke: #292929; stroke-width: 1.25; stroke-linecap: square"/>
   </g>
   <g id="line2d_235">
    <path d="M 140.165304 194.621164 
L 146.245212 194.621164 
" clip-path="url(#p69792365fe)" style="fill: none; stroke: #292929; stroke-width: 1.25; stroke-linecap: square"/>
   </g>
   <g id="line2d_236">
    <path d="M 146.369292 165.766752 
L 152.4492 165.766752 
" clip-path="url(#p69792365fe)" style="fill: none; stroke: #292929; stroke-width: 1.25; stroke-linecap: square"/>
   </g>
   <g id="line2d_237">
    <path d="M 152.57328 124.848053 
L 158.653188 124.848053 
" clip-path="url(#p69792365fe)" style="fill: none; stroke: #292929; stroke-width: 1.25; stroke-linecap: square"/>
   </g>
   <g id="line2d_238">
    <path d="M 158.777268 222.71051 
L 164.857176 222.71051 
" clip-path="url(#p69792365fe)" style="fill: none; stroke: #292929; stroke-width: 1.25; stroke-linecap: square"/>
   </g>
   <g id="line2d_239">
    <path d="M 164.981256 199.165044 
L 171.061164 199.165044 
" clip-path="url(#p69792365fe)" style="fill: none; stroke: #292929; stroke-width: 1.25; stroke-linecap: square"/>
   </g>
   <g id="line2d_240">
    <path d="M 171.185244 202.698829 
L 177.265152 202.698829 
" clip-path="url(#p69792365fe)" style="fill: none; stroke: #292929; stroke-width: 1.25; stroke-linecap: square"/>
   </g>
   <g id="line2d_241">
    <path d="M 186.695213 151.650224 
L 192.775121 151.650224 
" clip-path="url(#p69792365fe)" style="fill: none; stroke: #292929; stroke-width: 1.25; stroke-linecap: square"/>
   </g>
   <g id="line2d_242">
    <path d="M 192.899201 126.481575 
L 198.979109 126.481575 
" clip-path="url(#p69792365fe)" style="fill: none; stroke: #292929; stroke-width: 1.25; stroke-linecap: square"/>
   </g>
   <g id="line2d_243">
    <path d="M 199.103189 102.441918 
L 205.183097 102.441918 
" clip-path="url(#p69792365fe)" style="fill: none; stroke: #292929; stroke-width: 1.25; stroke-linecap: square"/>
   </g>
   <g id="line2d_244">
    <path d="M 205.307177 151.315249 
L 211.387085 151.315249 
" clip-path="url(#p69792365fe)" style="fill: none; stroke: #292929; stroke-width: 1.25; stroke-linecap: square"/>
   </g>
   <g id="line2d_245">
    <path d="M 211.511165 138.453846 
L 217.591073 138.453846 
" clip-path="url(#p69792365fe)" style="fill: none; stroke: #292929; stroke-width: 1.25; stroke-linecap: square"/>
   </g>
   <g id="line2d_246">
    <path d="M 217.715152 229.645742 
L 223.79506 229.645742 
" clip-path="url(#p69792365fe)" style="fill: none; stroke: #292929; stroke-width: 1.25; stroke-linecap: square"/>
   </g>
   <g id="line2d_247">
    <path d="M 233.225122 158.12745 
L 239.30503 158.12745 
" clip-path="url(#p69792365fe)" style="fill: none; stroke: #292929; stroke-width: 1.25; stroke-linecap: square"/>
   </g>
   <g id="line2d_248">
    <path d="M 239.42911 119.720034 
L 245.509018 119.720034 
" clip-path="url(#p69792365fe)" style="fill: none; stroke: #292929; stroke-width: 1.25; stroke-linecap: square"/>
   </g>
   <g id="line2d_249">
    <path d="M 245.633098 91.730974 
L 251.713006 91.730974 
" clip-path="url(#p69792365fe)" style="fill: none; stroke: #292929; stroke-width: 1.25; stroke-linecap: square"/>
   </g>
   <g id="line2d_250">
    <path d="M 251.837085 231.213097 
L 257.916994 231.213097 
" clip-path="url(#p69792365fe)" style="fill: none; stroke: #292929; stroke-width: 1.25; stroke-linecap: square"/>
   </g>
   <g id="line2d_251">
    <path d="M 258.041073 185.226344 
L 264.120981 185.226344 
" clip-path="url(#p69792365fe)" style="fill: none; stroke: #292929; stroke-width: 1.25; stroke-linecap: square"/>
   </g>
   <g id="line2d_252">
    <path d="M 264.245061 245.046342 
L 270.324969 245.046342 
" clip-path="url(#p69792365fe)" style="fill: none; stroke: #292929; stroke-width: 1.25; stroke-linecap: square"/>
   </g>
   <g id="patch_39">
    <path d="M 42.390456 262.687865 
L 42.390456 25.875732 
" style="fill: none; stroke: #000000; stroke-width: 0.5; stroke-linejoin: miter; stroke-linecap: square"/>
   </g>
   <g id="patch_40">
    <path d="M 275.04 262.687865 
L 275.04 25.875732 
" style="fill: none; stroke: #000000; stroke-width: 0.5; stroke-linejoin: miter; stroke-linecap: square"/>
   </g>
   <g id="patch_41">
    <path d="M 42.390456 262.687865 
L 275.04 262.687865 
" style="fill: none; stroke: #000000; stroke-width: 0.5; stroke-linejoin: miter; stroke-linecap: square"/>
   </g>
   <g id="patch_42">
    <path d="M 42.390456 25.875732 
L 275.04 25.875732 
" style="fill: none; stroke: #000000; stroke-width: 0.5; stroke-linejoin: miter; stroke-linecap: square"/>
   </g>
   <g id="text_13">
    <!-- Reflectance -->
    <g transform="translate(133.335054 19.875732) scale(0.09996 -0.09996)">
     <defs>
      <path id="CMR17-d" d="M 2554 4409 
C 2483 4396 2426 4384 2342 4365 
C 2157 4460 1914 4460 1850 4460 
C 1306 4460 634 4154 634 3472 
L 634 2725 
L 122 2725 
L 122 2560 
L 634 2560 
L 634 427 
C 634 184 608 153 198 153 
L 198 -13 
C 352 0 634 0 794 0 
C 960 0 1242 0 1395 -13 
L 1395 153 
C 986 153 960 178 960 427 
L 960 2560 
L 2227 2560 
L 2227 427 
C 2227 184 2202 153 1792 153 
L 1792 -13 
C 1946 0 2227 0 2387 0 
C 2554 0 2835 0 2989 -13 
L 2989 153 
C 2579 153 2554 178 2554 427 
L 2554 4409 
z
M 947 2725 
L 947 3469 
C 947 4028 1370 4352 1837 4352 
C 1869 4352 2221 4352 2221 4282 
C 2221 4275 2214 4269 2182 4237 
C 2125 4199 2099 4135 2099 4071 
C 2099 3981 2144 3905 2227 3873 
L 2227 2725 
L 947 2725 
z
" transform="scale(0.015625)"/>
      <path id="CMR17-63" d="M 2234 2240 
C 2112 2240 1933 2240 1933 2017 
C 1933 1838 2080 1787 2163 1787 
C 2208 1787 2394 1807 2394 2024 
C 2394 2467 1958 2803 1466 2803 
C 787 2803 211 2178 211 1363 
C 211 516 813 -64 1466 -64 
C 2259 -64 2458 677 2458 748 
C 2458 774 2451 793 2406 793 
C 2362 793 2355 787 2330 703 
C 2163 180 1798 51 1523 51 
C 1114 51 621 427 621 1369 
C 621 2338 1094 2688 1472 2688 
C 1722 2688 2093 2573 2234 2240 
z
" transform="scale(0.015625)"/>
      <path id="CMR17-74" d="M 966 2560 
L 1862 2560 
L 1862 2725 
L 966 2725 
L 966 3904 
L 851 3904 
C 838 3245 614 2668 70 2668 
L 70 2560 
L 627 2560 
L 627 771 
C 627 650 627 -64 1370 -64 
C 1747 -64 1965 306 1965 777 
L 1965 1140 
L 1850 1140 
L 1850 783 
C 1850 344 1677 51 1408 51 
C 1222 51 966 178 966 758 
L 966 2560 
z
" transform="scale(0.015625)"/>
     </defs>
     <use xlink:href="#CMR17-52" transform="scale(0.996264)"/>
     <use xlink:href="#CMR17-65" transform="translate(67.791102 0) scale(0.996264)"/>
     <use xlink:href="#CMR17-d" transform="translate(108.276762 0) scale(0.996264)"/>
     <use xlink:href="#CMR17-65" transform="translate(158.018986 0) scale(0.996264)"/>
     <use xlink:href="#CMR17-63" transform="translate(198.504646 0) scale(0.996264)"/>
     <use xlink:href="#CMR17-74" transform="translate(238.990307 0) scale(0.996264)"/>
     <use xlink:href="#CMR17-61" transform="translate(274.271075 0) scale(0.996264)"/>
     <use xlink:href="#CMR17-6e" transform="translate(319.961552 0) scale(0.996264)"/>
     <use xlink:href="#CMR17-63" transform="translate(370.856921 0) scale(0.996264)"/>
     <use xlink:href="#CMR17-65" transform="translate(411.342582 0) scale(0.996264)"/>
    </g>
   </g>
   <g id="legend_1">
    <g id="text_14">
     <!-- species -->
     <g transform="translate(72.854019 41.787863) scale(0.09996 -0.09996)">
      <defs>
       <path id="CMR17-73" d="M 1978 2697 
C 1978 2813 1971 2819 1933 2819 
C 1907 2819 1901 2813 1824 2717 
C 1805 2691 1747 2626 1728 2601 
C 1523 2819 1235 2819 1126 2819 
C 416 2819 160 2447 160 2076 
C 160 1498 813 1365 998 1325 
C 1402 1243 1542 1217 1677 1101 
C 1760 1025 1901 884 1901 654 
C 1901 384 1747 38 1158 38 
C 602 38 403 460 288 1021 
C 269 1110 269 1117 218 1117 
C 166 1117 160 1110 160 983 
L 160 63 
C 160 -51 166 -58 205 -58 
C 237 -58 243 -51 275 0 
C 314 57 410 211 448 276 
C 576 103 800 -64 1158 -64 
C 1792 -64 2131 283 2131 784 
C 2131 1112 1958 1285 1875 1362 
C 1683 1561 1459 1606 1190 1657 
C 838 1735 390 1825 390 2217 
C 390 2383 480 2737 1126 2737 
C 1811 2737 1850 2094 1862 1888 
C 1869 1856 1901 1849 1920 1849 
C 1978 1849 1978 1869 1978 1978 
L 1978 2697 
z
" transform="scale(0.015625)"/>
       <path id="CMR17-70" d="M 1408 -1063 
C 998 -1063 973 -1037 973 -789 
L 973 402 
C 1158 134 1427 -38 1766 -38 
C 2406 -38 3053 523 3053 1388 
C 3053 2191 2496 2802 1837 2802 
C 1453 2802 1139 2592 960 2338 
L 960 2802 
L 198 2732 
L 198 2567 
C 576 2567 634 2528 634 2223 
L 634 -789 
C 634 -1031 608 -1063 198 -1063 
L 198 -1228 
C 352 -1216 634 -1216 800 -1216 
C 966 -1216 1254 -1216 1408 -1228 
L 1408 -1063 
z
M 973 2012 
C 973 2102 973 2235 1222 2471 
C 1254 2497 1472 2688 1792 2688 
C 2259 2688 2643 2108 2643 1382 
C 2643 656 2234 64 1728 64 
C 1498 64 1248 172 1056 472 
C 973 612 973 650 973 752 
L 973 2012 
z
" transform="scale(0.015625)"/>
       <path id="CMR17-69" d="M 992 3909 
C 992 4049 877 4170 730 4170 
C 589 4170 467 4056 467 3909 
C 467 3769 582 3648 730 3648 
C 870 3648 992 3763 992 3909 
z
M 243 2706 
L 243 2541 
C 602 2541 653 2502 653 2197 
L 653 427 
C 653 184 627 153 218 153 
L 218 -13 
C 371 0 646 0 806 0 
C 960 0 1222 0 1370 -13 
L 1370 153 
C 992 153 979 191 979 420 
L 979 2776 
L 243 2706 
z
" transform="scale(0.015625)"/>
      </defs>
      <use xlink:href="#CMR17-73" transform="scale(0.996264)"/>
      <use xlink:href="#CMR17-70" transform="translate(35.801338 0) scale(0.996264)"/>
      <use xlink:href="#CMR17-65" transform="translate(89.299146 0) scale(0.996264)"/>
      <use xlink:href="#CMR17-63" transform="translate(129.784807 0) scale(0.996264)"/>
      <use xlink:href="#CMR17-69" transform="translate(170.270467 0) scale(0.996264)"/>
      <use xlink:href="#CMR17-65" transform="translate(195.141526 0) scale(0.996264)"/>
      <use xlink:href="#CMR17-73" transform="translate(235.627186 0) scale(0.996264)"/>
     </g>
    </g>
    <g id="patch_43">
     <path d="M 51.386856 55.719466 
L 71.378856 55.719466 
L 71.378856 48.722266 
L 51.386856 48.722266 
z
" style="fill: #539681; stroke: #292929; stroke-width: 0.625; stroke-linejoin: miter"/>
    </g>
    <g id="text_15">
     <!-- Woodland -->
     <g transform="translate(79.375656 55.719466) scale(0.09996 -0.09996)">
      <defs>
       <path id="CMR17-6f" d="M 2758 1356 
C 2758 2176 2163 2816 1466 2816 
C 768 2816 173 2176 173 1356 
C 173 551 768 -64 1466 -64 
C 2163 -64 2758 551 2758 1356 
z
M 1466 51 
C 1165 51 909 230 762 480 
C 602 767 582 1126 582 1408 
C 582 1677 595 2010 762 2298 
C 890 2509 1139 2714 1466 2714 
C 1754 2714 1997 2554 2150 2330 
C 2349 2029 2349 1607 2349 1408 
C 2349 1158 2336 775 2163 467 
C 1984 173 1709 51 1466 51 
z
" transform="scale(0.015625)"/>
      </defs>
      <use xlink:href="#CMR17-57" transform="scale(0.996264)"/>
      <use xlink:href="#CMR17-6f" transform="translate(87.289395 0) scale(0.996264)"/>
      <use xlink:href="#CMR17-6f" transform="translate(135.58231 0) scale(0.996264)"/>
      <use xlink:href="#CMR17-64" transform="translate(183.875226 0) scale(0.996264)"/>
      <use xlink:href="#CMR17-6c" transform="translate(234.770596 0) scale(0.996264)"/>
      <use xlink:href="#CMR17-61" transform="translate(259.641654 0) scale(0.996264)"/>
      <use xlink:href="#CMR17-6e" transform="translate(305.332132 0) scale(0.996264)"/>
      <use xlink:href="#CMR17-64" transform="translate(356.227501 0) scale(0.996264)"/>
     </g>
    </g>
    <g id="patch_44">
     <path d="M 51.386856 69.651069 
L 71.378856 69.651069 
L 71.378856 62.653869 
L 51.386856 62.653869 
z
" style="fill: #a04817; stroke: #292929; stroke-width: 0.625; stroke-linejoin: miter"/>
    </g>
    <g id="text_16">
     <!-- Shrubs -->
     <g transform="translate(79.375656 69.651069) scale(0.09996 -0.09996)">
      <defs>
       <path id="CMR17-68" d="M 2656 1933 
C 2656 2259 2592 2790 1837 2790 
C 1312 2790 1056 2368 979 2157 
L 973 2157 
L 973 4396 
L 211 4326 
L 211 4160 
C 589 4160 646 4122 646 3817 
L 646 426 
C 646 184 621 153 211 153 
L 211 -13 
C 365 0 646 0 813 0 
C 979 0 1267 0 1421 -13 
L 1421 153 
C 1011 153 986 178 986 428 
L 986 1658 
C 986 2247 1344 2688 1792 2688 
C 2266 2688 2317 2266 2317 1958 
L 2317 428 
C 2317 184 2291 153 1882 153 
L 1882 -13 
C 2035 0 2317 0 2483 0 
C 2650 0 2938 0 3091 -13 
L 3091 153 
C 2682 153 2656 178 2656 428 
L 2656 1933 
z
" transform="scale(0.015625)"/>
       <path id="CMR17-62" d="M 960 4396 
L 198 4326 
L 198 4160 
C 576 4160 634 4122 634 3817 
L 634 -13 
L 749 -13 
L 934 441 
C 1120 141 1395 -64 1766 -64 
C 2406 -64 3053 500 3053 1370 
C 3053 2188 2477 2790 1830 2790 
C 1434 2790 1152 2579 960 2330 
L 960 4396 
z
M 973 2004 
C 973 2118 973 2138 1062 2272 
C 1312 2657 1670 2688 1792 2688 
C 1984 2688 2643 2585 2643 1376 
C 2643 108 1888 38 1734 38 
C 1536 38 1248 114 1043 486 
C 973 608 973 621 973 735 
L 973 2004 
z
" transform="scale(0.015625)"/>
      </defs>
      <use xlink:href="#CMR17-53" transform="scale(0.996264)"/>
      <use xlink:href="#CMR17-68" transform="translate(50.89537 0) scale(0.996264)"/>
      <use xlink:href="#CMR17-72" transform="translate(101.79074 0) scale(0.996264)"/>
      <use xlink:href="#CMR17-75" transform="translate(137.071507 0) scale(0.996264)"/>
      <use xlink:href="#CMR17-62" transform="translate(187.966877 0) scale(0.996264)"/>
      <use xlink:href="#CMR17-73" transform="translate(238.862247 0) scale(0.996264)"/>
     </g>
    </g>
    <g id="patch_45">
     <path d="M 51.386856 83.582672 
L 71.378856 83.582672 
L 71.378856 76.585472 
L 51.386856 76.585472 
z
" style="fill: #5e5a8a; stroke: #292929; stroke-width: 0.625; stroke-linejoin: miter"/>
    </g>
    <g id="text_17">
     <!-- Desert -->
     <g transform="translate(79.375656 83.582672) scale(0.09996 -0.09996)">
      <defs>
       <path id="CMR17-44" d="M 333 4352 
L 333 4186 
C 774 4186 845 4186 845 3900 
L 845 452 
C 845 166 774 166 333 166 
L 333 0 
L 2368 0 
C 3398 0 4224 943 4224 2141 
C 4224 3346 3411 4352 2368 4352 
L 333 4352 
z
M 1523 166 
C 1267 166 1254 197 1254 414 
L 1254 3938 
C 1254 4155 1267 4186 1523 4186 
L 2240 4186 
C 2771 4186 3750 3874 3750 2141 
C 3750 1242 3488 879 3366 707 
C 3213 510 2848 166 2240 166 
L 1523 166 
z
" transform="scale(0.015625)"/>
      </defs>
      <use xlink:href="#CMR17-44" transform="scale(0.996264)"/>
      <use xlink:href="#CMR17-65" transform="translate(70.393556 0) scale(0.996264)"/>
      <use xlink:href="#CMR17-73" transform="translate(110.879216 0) scale(0.996264)"/>
      <use xlink:href="#CMR17-65" transform="translate(146.680554 0) scale(0.996264)"/>
      <use xlink:href="#CMR17-72" transform="translate(187.166214 0) scale(0.996264)"/>
      <use xlink:href="#CMR17-74" transform="translate(222.446982 0) scale(0.996264)"/>
     </g>
    </g>
    <g id="patch_46">
     <path d="M 51.386856 97.514275 
L 71.378856 97.514275 
L 71.378856 90.517075 
L 51.386856 90.517075 
z
" style="fill: #ad256b; stroke: #292929; stroke-width: 0.625; stroke-linejoin: miter"/>
    </g>
    <g id="text_18">
     <!-- Mangrove -->
     <g transform="translate(79.375656 97.514275) scale(0.09996 -0.09996)">
      <defs>
       <path id="CMR17-4d" d="M 1338 4224 
C 1299 4320 1293 4320 1158 4320 
L 339 4320 
L 339 4160 
C 781 4160 851 4160 851 3875 
L 851 610 
C 851 451 851 153 339 153 
L 339 -13 
C 486 0 755 0 915 0 
C 1075 0 1344 0 1491 -13 
L 1491 153 
C 979 153 979 451 979 610 
L 979 4135 
L 986 4135 
L 2490 89 
C 2515 25 2528 -13 2579 -13 
C 2630 -13 2643 25 2669 89 
L 4186 4166 
L 4192 4166 
L 4192 438 
C 4192 153 4122 153 3680 153 
L 3680 -13 
C 3853 0 4198 0 4384 0 
C 4570 0 4922 0 5094 -13 
L 5094 153 
C 4653 153 4582 153 4582 438 
L 4582 3875 
C 4582 4160 4653 4160 5094 4160 
L 5094 4320 
L 4282 4320 
C 4147 4320 4141 4314 4102 4218 
L 2720 502 
L 1338 4224 
z
" transform="scale(0.015625)"/>
       <path id="CMR17-67" d="M 710 1164 
C 832 1068 1043 960 1299 960 
C 1805 960 2240 1357 2240 1888 
C 2240 2054 2189 2310 1997 2509 
C 2176 2692 2438 2752 2586 2752 
C 2611 2752 2650 2752 2682 2734 
C 2656 2728 2598 2703 2598 2605 
C 2598 2527 2656 2471 2739 2471 
C 2835 2471 2886 2533 2886 2614 
C 2886 2731 2790 2854 2586 2854 
C 2330 2854 2106 2738 1926 2580 
C 1734 2753 1504 2816 1299 2816 
C 794 2816 358 2419 358 1888 
C 358 1522 570 1292 634 1228 
C 442 1004 442 743 442 711 
C 442 545 506 302 723 168 
C 390 85 128 -169 128 -486 
C 128 -943 736 -1280 1466 -1280 
C 2170 -1280 2803 -956 2803 -479 
C 2803 384 1856 384 1363 384 
C 1216 384 954 384 922 391 
C 723 423 589 602 589 826 
C 589 883 589 1024 710 1164 
z
M 1299 1068 
C 736 1068 736 1760 736 1889 
C 736 2016 736 2708 1299 2708 
C 1862 2708 1862 2016 1862 1889 
C 1862 1760 1862 1068 1299 1068 
z
M 1466 -1171 
C 826 -1171 384 -835 384 -486 
C 384 -289 493 -105 634 -4 
C 794 104 858 104 1293 104 
C 1818 104 2547 104 2547 -486 
C 2547 -835 2106 -1171 1466 -1171 
z
" transform="scale(0.015625)"/>
      </defs>
      <use xlink:href="#CMR17-4d" transform="scale(0.996264)"/>
      <use xlink:href="#CMR17-61" transform="translate(84.686941 0) scale(0.996264)"/>
      <use xlink:href="#CMR17-6e" transform="translate(130.377418 0) scale(0.996264)"/>
      <use xlink:href="#CMR17-67" transform="translate(181.272787 0) scale(0.996264)"/>
      <use xlink:href="#CMR17-72" transform="translate(226.963265 0) scale(0.996264)"/>
      <use xlink:href="#CMR17-6f" transform="translate(262.244032 0) scale(0.996264)"/>
      <use xlink:href="#CMR17-76" transform="translate(305.332056 0) scale(0.996264)"/>
      <use xlink:href="#CMR17-65" transform="translate(351.022517 0) scale(0.996264)"/>
     </g>
    </g>
    <g id="patch_47">
     <path d="M 51.386856 111.445879 
L 71.378856 111.445879 
L 71.378856 104.448679 
L 51.386856 104.448679 
z
" style="fill: #ab8118; stroke: #292929; stroke-width: 0.625; stroke-linejoin: miter"/>
    </g>
    <g id="text_19">
     <!-- Thorn -->
     <g transform="translate(79.375656 111.445879) scale(0.09996 -0.09996)">
      <defs>
       <path id="CMR17-54" d="M 3981 4326 
L 288 4326 
L 179 2918 
L 294 2918 
C 378 3976 467 4160 1453 4160 
C 1568 4160 1754 4160 1805 4154 
C 1926 4135 1926 4058 1926 3912 
L 1926 459 
C 1926 230 1907 160 1376 160 
L 1197 160 
L 1197 0 
C 1504 0 1824 0 2138 0 
C 2451 0 2771 0 3078 0 
L 3078 160 
L 2899 160 
C 2368 160 2349 230 2349 459 
L 2349 3912 
C 2349 4052 2349 4129 2464 4154 
C 2515 4160 2701 4160 2816 4160 
C 3795 4160 3891 3976 3974 2918 
L 4090 2918 
L 3981 4326 
z
" transform="scale(0.015625)"/>
      </defs>
      <use xlink:href="#CMR17-54" transform="scale(0.996264)"/>
      <use xlink:href="#CMR17-68" transform="translate(66.509881 0) scale(0.996264)"/>
      <use xlink:href="#CMR17-6f" transform="translate(117.40525 0) scale(0.996264)"/>
      <use xlink:href="#CMR17-72" transform="translate(163.095727 0) scale(0.996264)"/>
      <use xlink:href="#CMR17-6e" transform="translate(198.376495 0) scale(0.996264)"/>
     </g>
    </g>
    <g id="patch_48">
     <path d="M 51.386856 125.377482 
L 71.378856 125.377482 
L 71.378856 118.380282 
L 51.386856 118.380282 
z
" style="fill: #477613; stroke: #292929; stroke-width: 0.625; stroke-linejoin: miter"/>
    </g>
    <g id="text_20">
     <!-- Water -->
     <g transform="translate(79.375656 125.377482) scale(0.09996 -0.09996)">
      <use xlink:href="#CMR17-57" transform="scale(0.996264)"/>
      <use xlink:href="#CMR17-61" transform="translate(87.289395 0) scale(0.996264)"/>
      <use xlink:href="#CMR17-74" transform="translate(132.979872 0) scale(0.996264)"/>
      <use xlink:href="#CMR17-65" transform="translate(168.260639 0) scale(0.996264)"/>
      <use xlink:href="#CMR17-72" transform="translate(208.7463 0) scale(0.996264)"/>
     </g>
    </g>
   </g>
  </g>
 </g>
 <defs>
  <clipPath id="p69792365fe">
   <rect x="42.390456" y="25.875732" width="232.649544" height="236.812134"/>
  </clipPath>
 </defs>
</svg>
